<?xml version="1.0" encoding="UTF-8"?>
<svg version="1.1" xmlns="http://www.w3.org/2000/svg" width="1920" height="1080">
<path d="M0 0 C1 3 1 3 -0.51953125 6.0546875 C-1.27745032 7.33194678 -2.04236453 8.60506931 -2.8125 9.875 C-18.39403785 36.81002754 -29.06720422 66.24007945 -34 97 C-34.15936035 97.93489258 -34.3187207 98.86978516 -34.48291016 99.83300781 C-45.1507842 164.23576543 -30.08425273 236.26243492 7.66796875 289.78515625 C8.43753906 290.84605469 9.20710938 291.90695312 10 293 C10.75925781 294.05058594 11.51851562 295.10117187 12.30078125 296.18359375 C18.83555773 305.04335116 25.66967384 313.57569258 33.25 321.5625 C45.31749214 334.48464851 54.60514385 349.51645657 63 365 C63.53850586 365.98419922 63.53850586 365.98419922 64.08789062 366.98828125 C94.53025035 423.2164256 101.4621581 491.74652731 83.75 553.125 C72.60500931 590.24107847 54.62253316 625.18165087 27.59765625 653.28515625 C25.47030335 655.50847996 23.47052451 657.76511884 21.5 660.125 C2.87155289 681.53649222 -22.8624709 697.53178557 -48 710 C-47.94199219 711.24652344 -47.88398437 712.49304688 -47.82421875 713.77734375 C-47.16693963 734.0507976 -52.4288008 752.1011364 -65.5625 767.875 C-68.25586958 770.69929727 -70.15164474 772.52575605 -74.0625 773.125 C-75.031875 773.08375 -76.00125 773.0425 -77 773 C-77.38498349 766.94007465 -76.79305975 761.49964759 -75.5 755.5625 C-73.5719044 746.45454364 -72.22397767 737.44714398 -77 729 C-78.30602156 727.3118462 -79.63527137 725.64105799 -81 724 C-82.28003906 724.34611328 -82.28003906 724.34611328 -83.5859375 724.69921875 C-103.44604631 729.87922651 -123.34419781 733.54941268 -143.84716797 734.78222656 C-145.97974091 734.99795066 -147.93740215 735.42676309 -150 736 C-142.75483372 749.41052413 -132.07708674 753.41361323 -118.421875 758.2734375 C-110.41683251 761.19620883 -102.94861718 764.0198573 -98.5625 771.75 C-94.68620413 780.90428802 -95.82964657 789.77715366 -99 799 C-102.96489688 808.29966081 -108.30833423 816.43219583 -115 824 C-115.71027344 824.83015625 -116.42054688 825.6603125 -117.15234375 826.515625 C-125.96745411 836.61659504 -140.01519172 852.04731254 -154.45703125 853.1953125 C-155.62298828 853.16050781 -155.62298828 853.16050781 -156.8125 853.125 C-157.99779297 853.09792969 -157.99779297 853.09792969 -159.20703125 853.0703125 C-160.09455078 853.03550781 -160.09455078 853.03550781 -161 853 C-161.40195688 847.32235902 -160.46227796 844.26259507 -157.5 839.4375 C-156.76552116 838.21099968 -156.03114927 836.9844353 -155.296875 835.7578125 C-154.91724609 835.13680664 -154.53761719 834.51580078 -154.14648438 833.87597656 C-142.46930206 815.46065457 -142.46930206 815.46065457 -140.44140625 794.36328125 C-142.2202582 787.56298435 -145.16691301 782.86112576 -151.07421875 778.98046875 C-152.26884405 778.36345337 -153.47419223 777.76691508 -154.6875 777.1875 C-155.36248535 776.85621094 -156.0374707 776.52492188 -156.73291016 776.18359375 C-164.34469752 772.60078977 -172.31612109 770.03150349 -180.27978516 767.35620117 C-197.94234071 761.3853808 -215.59574853 753.62032244 -231 743 C-234.6928957 744.6640277 -237.78697832 746.94441324 -241.0625 749.3125 C-251.11028329 756.41249745 -261.49632336 761.4387255 -274 761 C-274.68359375 758.73828125 -274.68359375 758.73828125 -275 756 C-273.84765625 754.04296875 -273.84765625 754.04296875 -272.0625 752.1875 C-271.41410156 751.4965625 -270.76570312 750.805625 -270.09765625 750.09375 C-268.74603183 748.74464257 -267.37975424 747.40998064 -265.99609375 746.09375 C-260.74632961 741.08027661 -256.0499499 735.65819572 -253 729 C-253.9995569 721.02566781 -264.18224741 713.81050715 -270 709 C-275.01210224 705.56693554 -280.4348937 702.90690726 -285.83789062 700.15332031 C-299.57313389 692.82661647 -312.333925 682.58147795 -323.734375 672.08203125 C-325.80892036 670.1755956 -327.92265931 668.3323439 -330.0625 666.5 C-337.67886448 659.8318576 -344.44300068 652.62081351 -350.69433594 644.66064453 C-351.61993306 643.48339853 -352.55081762 642.31030101 -353.48535156 641.14013672 C-361.89798273 630.58935993 -369.32502289 619.72806723 -376 608 C-376.42909668 607.25024902 -376.85819336 606.50049805 -377.30029297 605.72802734 C-389.89721765 583.46757772 -399.0933225 558.76366208 -403.625 533.5625 C-405.20016714 524.98552283 -408.38832981 518.78521142 -415 513 C-415.721875 512.319375 -416.44375 511.63875 -417.1875 510.9375 C-423.0153137 506.9227839 -429.67864112 505.07612287 -436.4375 503.1875 C-450.05039263 499.03820096 -461.63572735 489.70190746 -468.46020508 477.1784668 C-476.54804116 461.20598751 -478.2606351 445.22857994 -473 428 C-466.94665048 412.44625472 -456.34802617 400.47386727 -440.96875 393.65625 C-424.67871587 387.52559199 -406.94714907 388.22033644 -391.12109375 395.28515625 C-375.23329254 403.21800831 -366.23730867 416.09183916 -360.72558594 432.56445312 C-360.13858596 434.37251212 -359.5674982 436.18572546 -359 438 C-358.49879639 437.65718994 -357.99759277 437.31437988 -357.48120117 436.96118164 C-351.11106184 432.6597986 -344.2462875 430.1889605 -336.875 428.125 C-333.27600203 426.71669645 -330.38353426 424.67453423 -327.24609375 422.4375 C-320.53289154 418.14105059 -313.77172149 418.19398085 -306 419 C-298.54013554 421.16739305 -293.34318686 425.65506501 -289 432 C-287.20041056 435.53712407 -286.07013647 438.71444437 -285.125 442.5625 C-283.80948059 446.58214263 -282.47852825 449.54896842 -279 452 C-274.88250677 453.03770218 -270.79421313 453.20505168 -266.5625 453.375 C-265.44294922 453.44332031 -264.32339844 453.51164062 -263.16992188 453.58203125 C-260.11264386 453.75984327 -257.06097616 453.90660991 -254 454 C-252.94466064 454.04995117 -251.88932129 454.09990234 -250.80200195 454.15136719 C-246.65615525 453.92740405 -245.36279465 451.88577124 -242.625 448.875 C-238.45629301 444.43356719 -234.27617581 440.13396909 -229 437 C-228.34 437 -227.68 437 -227 437 C-226.79375 435.88625 -226.5875 434.7725 -226.375 433.625 C-223.73108246 423.28637074 -216.43654565 414.0351433 -207.4453125 408.3984375 C-195.81833223 402.35523499 -183.0110105 400.99651783 -170.22265625 403.83984375 C-162.86837629 406.43701515 -156.47372372 410.40931637 -151 416 C-150.67 416.99 -150.34 417.98 -150 419 C-148.2675 419.0928125 -148.2675 419.0928125 -146.5 419.1875 C-128.06652602 421.32220591 -106.60538327 431.18336276 -93.625 444.375 C-89.05512613 448.65057072 -85.28928051 448.63016116 -79.21875 448.7578125 C-73.21326444 449.20968156 -68.31249882 451.62019352 -64.12109375 455.93359375 C-59.87866037 461.34141846 -57.71481312 466.03758988 -57.8125 473 C-57.81894531 474.010625 -57.82539062 475.02125 -57.83203125 476.0625 C-57.98910043 478.80938433 -58.43245031 481.31425863 -59 484 C-58.1843457 483.98952637 -57.36869141 483.97905273 -56.52832031 483.96826172 C-53.44190557 483.93375468 -50.35559059 483.90889765 -47.26904297 483.89013672 C-45.30038843 483.87537776 -43.3318231 483.84993839 -41.36328125 483.82421875 C-33.35969111 483.78359139 -25.84095434 484.37425748 -18 486 C-17.97421875 484.96101563 -17.9484375 483.92203125 -17.921875 482.8515625 C-17.51684587 471.53249341 -16.12754343 462.3443027 -8.0625 453.7578125 C-0.99089656 447.73087775 6.86460901 445.66165219 16 446 C16.99 446.33 17.98 446.66 19 447 C18.67 446.01 18.34 445.02 18 444 C17.84199443 442.37566025 17.72790194 440.74685866 17.640625 439.1171875 C14.26844796 384.37833476 -7.01762351 333.17492257 -47.09765625 295.01953125 C-74.80896543 268.58113476 -96.54685575 228.65799202 -104 191 C-104.86238281 191.03480469 -105.72476562 191.06960938 -106.61328125 191.10546875 C-144.87169283 191.95386014 -180.64382808 175.44145036 -208.06591797 149.38818359 C-234.69020151 123.35737472 -250.84971639 87.30919892 -252 50 C-252.03996094 49.07960937 -252.07992187 48.15921875 -252.12109375 47.2109375 C-252.4191755 34.48109355 -250.84513039 21.39663957 -248 9 C-243.29368227 10.41737689 -238.9279587 12.34727778 -234.46484375 14.3762207 C-174.15732383 41.62316632 -104.37428116 43.29307485 -42.38671875 20.49609375 C-27.76161983 14.89933176 -13.20263542 8.48327232 0 0 Z M-217 73 C-216.4340922 78.78266708 -215.30914485 83.94396613 -213.4375 89.4375 C-213.17356445 90.21391846 -212.90962891 90.99033691 -212.63769531 91.7902832 C-205.6911194 111.63219352 -195.12635525 128.4982899 -181 144 C-180.14921875 144.93457031 -179.2984375 145.86914062 -178.421875 146.83203125 C-161.75534309 164.27201 -133.18974696 185.05575545 -108.0625 186.125 C-107.381875 186.08375 -106.70125 186.0425 -106 186 C-106.85139292 177.59249493 -108.17889368 169.28373874 -109.5390625 160.9453125 C-111.41066052 149.12910413 -112.17648564 137.4575397 -112.125 125.5 C-112.12306641 124.39156738 -112.12113281 123.28313477 -112.11914062 122.14111328 C-112.06561007 111.74280204 -111.61698129 101.37850662 -111 91 C-111.61593018 90.98541748 -112.23186035 90.97083496 -112.86645508 90.95581055 C-145.57300419 90.10406182 -176.47521993 85.74723426 -207.65283203 75.74072266 C-210.75199187 74.76268532 -213.86944318 73.87174628 -217 73 Z M-103 189 C-103 189.33 -103 189.66 -103 190 C-101.02 190 -99.04 190 -97 190 C-97 189.67 -97 189.34 -97 189 C-98.98 189 -100.96 189 -103 189 Z " fill="#FDE500" transform="translate(681,124)"/>
<path d="M0 0 C1 3 1 3 -0.51953125 6.0546875 C-1.27745032 7.33194678 -2.04236453 8.60506931 -2.8125 9.875 C-18.39403785 36.81002754 -29.06720422 66.24007945 -34 97 C-34.15936035 97.93489258 -34.3187207 98.86978516 -34.48291016 99.83300781 C-45.1507842 164.23576543 -30.08425273 236.26243492 7.66796875 289.78515625 C8.43753906 290.84605469 9.20710938 291.90695312 10 293 C10.75925781 294.05058594 11.51851562 295.10117187 12.30078125 296.18359375 C18.83555773 305.04335116 25.66967384 313.57569258 33.25 321.5625 C45.31749214 334.48464851 54.60514385 349.51645657 63 365 C63.53850586 365.98419922 63.53850586 365.98419922 64.08789062 366.98828125 C94.53025035 423.2164256 101.4621581 491.74652731 83.75 553.125 C72.60500931 590.24107847 54.62253316 625.18165087 27.59765625 653.28515625 C25.47030335 655.50847996 23.47052451 657.76511884 21.5 660.125 C4.99226467 679.09895121 -17.64340264 694.19262838 -39.625 705.9375 C-40.42446045 706.36877197 -41.2239209 706.80004395 -42.04760742 707.24438477 C-43.15712769 707.81757446 -43.15712769 707.81757446 -44.2890625 708.40234375 C-44.93568848 708.73741943 -45.58231445 709.07249512 -46.24853516 709.41772461 C-48 710 -48 710 -51 709 C-51.5775 708.21625 -52.155 707.4325 -52.75 706.625 C-56.10054891 702.71602628 -59.61451726 701.22483054 -64.65771484 700.74951172 C-68.75074009 700.62991255 -72.83716826 700.61767127 -76.93164062 700.6484375 C-84.97265496 700.52637277 -91.93500508 698.93352541 -97.87963867 693.18115234 C-104.33363231 685.65553233 -106.69306916 675.67042544 -106.32421875 665.953125 C-105.18263846 655.55511657 -101.93155968 646.81034052 -93.78515625 640.00390625 C-89.33771114 636.80399132 -84.61878495 634.06595565 -79.91845703 631.2565918 C-72.83570265 626.98822015 -66.36780225 622.27727999 -60 617 C-59.41202637 616.51354004 -58.82405273 616.02708008 -58.21826172 615.52587891 C-45.59844904 606.27504807 -45.59844904 606.27504807 -37.046875 594.0859375 C-35.8742016 590.62917635 -34.39408637 588.7360987 -32 586 C5.30035686 541.76560244 21.66834048 485.99642192 17.05688477 428.69897461 C12.33478138 378.06646195 -10.17794521 330.16635938 -47.09765625 295.01953125 C-74.80896543 268.58113476 -96.54685575 228.65799202 -104 191 C-104.86238281 191.03480469 -105.72476563 191.06960938 -106.61328125 191.10546875 C-144.87169283 191.95386014 -180.64382808 175.44145036 -208.06591797 149.38818359 C-234.69020151 123.35737472 -250.84971639 87.30919892 -252 50 C-252.03996094 49.07960937 -252.07992188 48.15921875 -252.12109375 47.2109375 C-252.4191755 34.48109355 -250.84513039 21.39663957 -248 9 C-243.29368227 10.41737689 -238.9279587 12.34727778 -234.46484375 14.3762207 C-174.15732383 41.62316632 -104.37428116 43.29307485 -42.38671875 20.49609375 C-27.76161983 14.89933176 -13.20263542 8.48327232 0 0 Z M-217 73 C-216.4340922 78.78266708 -215.30914485 83.94396613 -213.4375 89.4375 C-213.17356445 90.21391846 -212.90962891 90.99033691 -212.63769531 91.7902832 C-205.6911194 111.63219352 -195.12635525 128.4982899 -181 144 C-180.14921875 144.93457031 -179.2984375 145.86914062 -178.421875 146.83203125 C-161.75534309 164.27201 -133.18974696 185.05575545 -108.0625 186.125 C-107.381875 186.08375 -106.70125 186.0425 -106 186 C-106.85139292 177.59249493 -108.17889368 169.28373874 -109.5390625 160.9453125 C-111.41066052 149.12910413 -112.17648564 137.4575397 -112.125 125.5 C-112.12306641 124.39156738 -112.12113281 123.28313477 -112.11914062 122.14111328 C-112.06561007 111.74280204 -111.61698129 101.37850662 -111 91 C-111.61593018 90.98541748 -112.23186035 90.97083496 -112.86645508 90.95581055 C-145.57300419 90.10406182 -176.47521993 85.74723426 -207.65283203 75.74072266 C-210.75199187 74.76268532 -213.86944318 73.87174628 -217 73 Z M-103 189 C-103 189.33 -103 189.66 -103 190 C-101.02 190 -99.04 190 -97 190 C-97 189.67 -97 189.34 -97 189 C-98.98 189 -100.96 189 -103 189 Z " fill="#87C86D" transform="translate(681,124)"/>
<path d="M0 0 C4.13139813 2.78558579 7.34429371 6.52821376 10.71826172 10.16137695 C17.92518764 17.66603554 24.65545592 23.01926788 34.09326172 27.41137695 C34.79708984 27.82387695 35.50091797 28.23637695 36.22607422 28.66137695 C38.65735453 29.63795817 39.66683481 29.34461807 42.09326172 28.41137695 C43.61496864 27.61837475 45.11475666 26.78227719 46.59326172 25.91137695 C54.88144974 21.0292936 66.07608938 20.8780154 75.32763672 23.2355957 C78.89727788 24.65605942 81.89397736 26.27852071 85.09326172 28.41137695 C88.51970603 28.07978557 90.41221278 26.44247463 93.09326172 24.41137695 C100.95272659 20.78494601 108.18663925 22.03867161 116.28076172 24.41137695 C123.32581602 26.40602964 130.09872196 26.82632958 137.40576172 26.84887695 C138.89015747 26.86337891 138.89015747 26.86337891 140.40454102 26.87817383 C161.98278787 26.63339598 180.90757937 14.97529575 197.89941406 2.79663086 C200.21995661 1.33137842 202.52065775 0.35287658 205.09326172 -0.58862305 C203.67016455 4.02591687 201.05532877 6.87968005 197.65576172 10.16137695 C196.84679443 10.95233765 196.84679443 10.95233765 196.02148438 11.75927734 C183.47243942 23.87629394 169.04791714 34.56684668 153.90576172 43.22387695 C145.62043982 48.02245922 140.30046437 52.89023866 137.60107422 62.2355957 C134.71390612 74.60600054 135.47909992 86.26883157 142.21826172 97.34887695 C146.18773453 102.11980974 151.9311274 104.94818293 158.02832031 105.84130859 C161.09935672 105.98053887 164.14437259 106.01060896 167.21826172 105.97387695 C175.375462 105.90768244 182.447094 105.98041091 188.64819336 111.89428711 C194.31096852 118.36403023 193.71269408 125.92587756 193.31103516 134.05200195 C191.88142603 149.5405026 183.92686604 165.48212868 173.28076172 176.64575195 C170.12846747 179.19010374 168.09175166 179.58152546 164.09326172 179.41137695 C163.70827823 173.3514516 164.30020197 167.91102454 165.59326172 161.97387695 C167.52135732 152.86592059 168.86928405 143.85852093 164.09326172 135.41137695 C162.78724016 133.72322316 161.45799035 132.05243494 160.09326172 130.41137695 C159.23990234 130.64211914 158.38654297 130.87286133 157.50732422 131.1105957 C137.64721541 136.29060346 117.74906391 139.96078964 97.24609375 141.19360352 C95.11352081 141.40932761 93.15585957 141.83814004 91.09326172 142.41137695 C98.338428 155.82190108 109.01617498 159.82499019 122.67138672 164.68481445 C130.67642921 167.60758578 138.14464454 170.43123426 142.53076172 178.16137695 C146.40705759 187.31566498 145.26361515 196.18853061 142.09326172 205.41137695 C138.12836484 214.71103776 132.78492748 222.84357279 126.09326172 230.41137695 C125.38298828 231.2415332 124.67271484 232.07168945 123.94091797 232.92700195 C115.12580761 243.02797199 101.07807 258.45868949 86.63623047 259.60668945 C85.47027344 259.57188477 85.47027344 259.57188477 84.28076172 259.53637695 C83.49056641 259.51833008 82.70037109 259.5002832 81.88623047 259.48168945 C80.99871094 259.44688477 80.99871094 259.44688477 80.09326172 259.41137695 C79.69130484 253.73373597 80.63098376 250.67397202 83.59326172 245.84887695 C84.32774055 244.62237663 85.06211245 243.39581226 85.79638672 242.16918945 C86.17601562 241.54818359 86.55564453 240.92717773 86.94677734 240.28735352 C98.62395966 221.87203153 98.62395966 221.87203153 100.65185547 200.7746582 C98.87300351 193.9743613 95.9263487 189.27250271 90.01904297 185.3918457 C88.82441767 184.77483032 87.61906949 184.17829203 86.40576172 183.59887695 C85.73077637 183.26758789 85.05579102 182.93629883 84.36035156 182.5949707 C76.74856419 179.01216673 68.77714063 176.44288045 60.81347656 173.76757812 C43.15092101 167.79675776 25.49751319 160.03169939 10.09326172 149.41137695 C6.40036602 151.07540465 3.3062834 153.35579019 0.03076172 155.72387695 C-10.01702157 162.8238744 -20.40306164 167.85010245 -32.90673828 167.41137695 C-33.59033203 165.1496582 -33.59033203 165.1496582 -33.90673828 162.41137695 C-32.75439453 160.4543457 -32.75439453 160.4543457 -30.96923828 158.59887695 C-30.32083984 157.90793945 -29.67244141 157.21700195 -29.00439453 156.50512695 C-27.65277011 155.15601952 -26.28649252 153.82135759 -24.90283203 152.50512695 C-19.65306789 147.49165356 -14.95668818 142.06957267 -11.90673828 135.41137695 C-12.30478957 131.85676997 -13.75371594 130.22652281 -16.29345703 127.80200195 C-16.98503906 127.12911133 -17.67662109 126.4562207 -18.38916016 125.76293945 C-19.48067383 124.72266602 -19.48067383 124.72266602 -20.59423828 123.66137695 C-25.9336523 118.55030912 -30.60198845 113.41959759 -34.90673828 107.41137695 C-36.78862496 105.02950562 -38.68309653 102.65893185 -40.58642578 100.29418945 C-41.90673828 98.41137695 -41.90673828 98.41137695 -41.90673828 96.41137695 C-42.47779297 96.1484082 -43.04884766 95.88543945 -43.63720703 95.61450195 C-47.77095965 93.42311502 -51.27558837 90.33972366 -54.90673828 87.41137695 C-55.84453125 86.66307617 -55.84453125 86.66307617 -56.80126953 85.8996582 C-76.51073974 69.66047846 -95.49650126 41.35362906 -98.32080078 15.6418457 C-98.51438701 7.80160358 -98.51438701 7.80160358 -96.87548828 4.05200195 C-94.34486915 1.94315267 -92.35816942 1.94975291 -89.13232422 2.11450195 C-85.30273764 2.62533755 -81.71358957 3.77268392 -78.03173828 4.91137695 C-62.86276778 9.22276233 -48.28902503 8.79390662 -33.66455078 2.65356445 C-22.40838462 -2.05949042 -11.65717712 -6.22058998 0 0 Z " fill="#E8E6E6" transform="translate(439.90673828125,717.588623046875)"/>
<path d="M0 0 C1.26175049 0.00346436 2.52350098 0.00692871 3.82348633 0.01049805 C12.52309841 0.10879568 21.10632103 0.64252089 29.75 1.625 C30.792771 1.74254639 31.83554199 1.86009277 32.90991211 1.98120117 C50.22950056 4.18111643 50.22950056 4.18111643 56.5625 10.3125 C58.13479626 12.79848108 59.3334499 15.40344345 60.5234375 18.08984375 C60.86676117 18.84498764 61.21008484 19.60013153 61.56381226 20.37815857 C64.853427 27.73531867 67.66075819 35.22467075 70.1875 42.875 C70.43140472 43.6062912 70.67530945 44.3375824 70.92660522 45.09103394 C86.95120785 93.54940673 102.70486508 150.1086888 102.75 201.5625 C102.76224609 202.31273437 102.77449219 203.06296875 102.78710938 203.8359375 C102.80302961 209.92808099 102.37490113 215.31421157 98.125 220 C87.08417267 228.04894846 70.82053938 229.25217145 57.609375 227.85546875 C50.73873821 226.63108604 44.06629477 224.93227931 39.5625 219.3125 C36.2660111 208.93586744 37.04495865 195.44413165 36.5625 185.3125 C16.1025 185.6425 -4.3575 185.9725 -25.4375 186.3125 C-26.62974669 196.15298967 -26.62974669 196.15298967 -27.80004883 205.99609375 C-29.52420614 219.78217945 -29.52420614 219.78217945 -32.4375 225.3125 C-44.06635895 229.77895867 -62.06218244 226.71530974 -74.125 225 C-74.96603271 224.88237305 -75.80706543 224.76474609 -76.67358398 224.64355469 C-81.66926382 223.84896064 -85.92037573 222.61546375 -90.4375 220.3125 C-106.57479813 188.03790373 -73.76682799 107.80503461 -63.13604736 75.59249878 C-42.61541423 14.11535459 -42.61541423 14.11535459 -30.17578125 5.80078125 C-28.97501953 5.21876953 -28.97501953 5.21876953 -27.75 4.625 C-26.96238281 4.22925781 -26.17476562 3.83351562 -25.36328125 3.42578125 C-16.99752957 0.2425513 -8.89077396 -0.039805 0 0 Z M5.12109375 60.42578125 C2.56129102 60.70832949 0.85082581 61.12420664 -1.4375 62.3125 C-2.71700925 64.34167412 -2.71700925 64.34167412 -3.52734375 66.82421875 C-3.85629639 67.73010742 -4.18524902 68.63599609 -4.52416992 69.56933594 C-5.86795869 73.60537193 -7.11046819 77.63405978 -8.1875 81.75 C-8.43064941 82.67796387 -8.67379883 83.60592773 -8.92431641 84.56201172 C-11.68272116 95.59049404 -13.73099732 106.76557268 -15.8125 117.9375 C-15.993573 118.9047702 -16.174646 119.87204041 -16.36120605 120.86862183 C-16.87989544 123.65349265 -17.39090616 126.43963858 -17.8984375 129.2265625 C-18.13235703 130.48934273 -18.13235703 130.48934273 -18.3710022 131.77763367 C-18.51202362 132.56467178 -18.65304504 133.3517099 -18.79833984 134.16259766 C-18.98437271 135.18771957 -18.98437271 135.18771957 -19.17416382 136.23355103 C-19.54221986 138.78996728 -19.54221986 138.78996728 -19.4375 143.3125 C-1.6175 143.3125 16.2025 143.3125 34.5625 143.3125 C33.34466126 129.91627382 32.11052293 116.92587659 29.75 103.75 C29.61933136 103.00844666 29.48866272 102.26689331 29.35403442 101.50286865 C27.72669031 92.28450023 26.03677329 83.07525452 24 73.9375 C23.82686279 73.11306396 23.65372559 72.28862793 23.4753418 71.43920898 C22.29029514 66.46244025 20.78058624 63.52177638 16.5625 60.3125 C12.79978837 59.33062452 8.96951132 60.24721467 5.12109375 60.42578125 Z " fill="#FEE600" transform="translate(814.4375,146.6875)"/>
<path d="M0 0 C1.30259766 -0.01224609 2.60519531 -0.02449219 3.94726562 -0.03710938 C23.39751876 -0.06644611 23.39751876 -0.06644611 27.77009583 3.46603394 C29.4797464 5.54243916 29.71183582 6.80039386 30.03125 9.45483398 C30.14156052 10.32071136 30.25187103 11.18658875 30.36552429 12.07870483 C30.47177628 13.02081818 30.57802826 13.96293152 30.6875 14.93359375 C30.86893303 16.41323105 30.86893303 16.41323105 31.05403137 17.92276001 C31.44573974 21.15535197 31.81741318 24.38986668 32.1875 27.625 C32.45108137 29.85412488 32.71499948 32.08320997 32.97924805 34.31225586 C35.1540538 52.90359809 36.88735259 71.51547473 38.1875 90.1875 C38.32889404 92.06187744 38.32889404 92.06187744 38.47314453 93.97412109 C39.26646331 105.20972897 39.42932094 116.42602166 39.4375 127.6875 C39.43850708 128.65561615 39.43951416 129.6237323 39.44055176 130.6211853 C39.43022368 145.33156169 39.02415786 159.70480287 36.1875 174.1875 C36.05359863 174.90486328 35.91969727 175.62222656 35.78173828 176.36132812 C33.42663876 188.40801902 27.80231213 203.97244976 17.1875 211.1875 C-10.59881603 226.75035728 -47.05869859 218.71091705 -76.46484375 210.7578125 C-93.01543444 206.04076264 -112.20319728 198.79528586 -121.59765625 183.51953125 C-132.87302478 161.8751743 -126.5635348 132.12557516 -124.33005142 108.78104782 C-124.12174468 106.59077144 -123.91809047 104.40010914 -123.71591187 102.20925903 C-122.04971441 84.15998475 -120.26731408 66.12482908 -118.125 48.125 C-118.02885406 47.31360565 -117.93270813 46.5022113 -117.83364868 45.66622925 C-117.21416395 40.49870136 -116.5434951 35.34043731 -115.8125 30.1875 C-115.69904236 29.3856427 -115.58558472 28.5837854 -115.46868896 27.75762939 C-115.11232874 25.29557529 -114.73734506 22.83712099 -114.35546875 20.37890625 C-114.24648758 19.6311644 -114.13750641 18.88342255 -114.02522278 18.11302185 C-113.34120127 13.88681207 -112.56657974 10.51989775 -109.8125 7.1875 C-101.82110463 3.44934301 -92.5022404 3.78622784 -83.875 3.9375 C-82.11639648 3.94523438 -82.11639648 3.94523438 -80.32226562 3.953125 C-74.45812186 4.00493411 -68.60144482 4.18918279 -62.74609375 4.515625 C-61.72443115 4.57137695 -60.70276855 4.62712891 -59.65014648 4.68457031 C-56.28584972 5.28084075 -54.40869843 5.94210793 -51.8125 8.1875 C-50.77520393 12.97914491 -50.84130503 16.86854371 -51.75292969 21.65991211 C-51.98357117 22.90328842 -52.21421265 24.14666473 -52.45184326 25.42771912 C-52.71268501 26.77342775 -52.97352898 28.11913595 -53.234375 29.46484375 C-53.49883379 30.87686101 -53.76209543 32.28910294 -54.02423096 33.70155334 C-54.71745759 37.42426566 -55.42265159 41.14459373 -56.13171387 44.86431885 C-60.92421521 69.63139283 -60.92421521 69.63139283 -64.703125 94.56640625 C-64.82226257 95.4794603 -64.94140015 96.39251434 -65.06414795 97.33323669 C-66.69495851 111.08715587 -67.44502782 126.54591963 -58.8125 138.1875 C-53.55957972 143.07393747 -49.96805109 143.59876428 -42.9296875 143.53125 C-36.82125203 142.85763807 -33.26048897 139.94032875 -29.4375 135.3125 C-25.34136861 127.43532424 -25.44505155 120.0352982 -25.46875 111.28515625 C-25.46926865 110.61069017 -25.46978729 109.9362241 -25.47032166 109.24131966 C-25.51523936 93.91708697 -27.16506002 78.86179562 -29.05743408 63.67327881 C-33.12028485 31.04700244 -33.12028485 31.04700244 -33.15625 17.47265625 C-33.15975464 16.57759872 -33.16325928 15.6825412 -33.16687012 14.76036072 C-33.06322486 7.63698916 -33.06322486 7.63698916 -30.8125 4.1875 C-20.92485944 -0.41536716 -10.72146017 0.0052582 0 0 Z " fill="#FEE600" transform="translate(1253.8125,154.8125)"/>
<path d="M0 0 C0.80711426 0.15758789 1.61422852 0.31517578 2.44580078 0.47753906 C9.13614342 1.91190253 9.13614342 1.91190253 11.5 5.0625 C11.76464844 7.01000977 11.76464844 7.01000977 11.609375 9.25390625 C11.55966553 10.10186768 11.50995605 10.9498291 11.45874023 11.82348633 C11.38985596 12.74798584 11.32097168 13.67248535 11.25 14.625 C11.13045948 16.64056295 11.01201319 18.65619102 10.89453125 20.671875 C10.82830566 21.72568359 10.76208008 22.77949219 10.69384766 23.86523438 C10.380547 29.03272235 10.14768369 34.20239145 9.9375 39.375 C9.89471924 40.42421631 9.85193848 41.47343262 9.80786133 42.55444336 C9.2793121 57.05041511 9.41204603 71.5595667 9.5 86.0625 C11.26477332 84.47326229 13.02747173 82.88182139 14.7890625 81.2890625 C15.53361694 80.61919312 15.53361694 80.61919312 16.29321289 79.93579102 C20.39576076 76.221368 23.99832423 72.33619878 27.5 68.0625 C28.4530805 66.92183781 29.40621022 65.78121675 30.359375 64.640625 C45.82445318 46.00316252 59.21003653 26.29980534 70.51171875 4.86328125 C71.5 3.0625 71.5 3.0625 72.5 2.0625 C77.84384801 1.4462022 80.40798525 2.89004208 84.6875 6 C85.25138428 6.40750488 85.81526855 6.81500977 86.39624023 7.23486328 C113.19933725 26.8218868 113.19933725 26.8218868 117.5 36.0625 C117.90785539 40.14063431 117.13973461 42.22163399 114.859375 45.58203125 C114.28960938 46.4313623 113.71984375 47.28069336 113.1328125 48.15576172 C112.51148438 49.05311035 111.89015625 49.95045898 111.25 50.875 C110.61320312 51.80844238 109.97640625 52.74188477 109.3203125 53.70361328 C107.3977958 56.5026559 105.45440132 59.28564683 103.5 62.0625 C102.70045898 63.20162842 102.70045898 63.20162842 101.88476562 64.36376953 C94.96426477 74.13162679 87.26495682 82.87646194 78.97705078 91.5 C77.12193207 93.46243963 75.3668121 95.49930572 73.625 97.5625 C70.24165063 101.47345088 66.45594971 104.74418692 62.5 108.0625 C61.43666013 108.97558533 60.3742277 109.88972804 59.3125 110.8046875 C58.166954 111.78679358 57.0211199 112.76856371 55.875 113.75 C55.06748291 114.4457312 55.06748291 114.4457312 54.24365234 115.15551758 C51.61974157 117.38628347 49.04751263 119.36186225 46.1640625 121.26953125 C43.4301734 122.79188143 43.4301734 122.79188143 42.5 125.0625 C43.0767749 125.33618408 43.6535498 125.60986816 44.24780273 125.8918457 C46.48384839 127.05410467 48.47123442 128.34916745 50.53515625 129.79296875 C63.72234513 138.8786041 77.37067527 146.76278281 91.43945312 154.3984375 C95.66344535 156.69508165 99.86713805 159.02656007 104.0625 161.375 C104.70485596 161.72989502 105.34721191 162.08479004 106.0090332 162.45043945 C108.47315342 163.82782301 110.49220238 165.05470238 112.5 167.0625 C111.74971416 182.12311574 97.01673573 198.47704822 87.1875 209.25 C86.69604492 209.79084229 86.20458984 210.33168457 85.69824219 210.88891602 C82.88824145 213.87991443 80.19992781 216.2588624 76.5 218.0625 C60.35936748 218.38531265 45.48632099 200.68596481 34.74658203 190.37988281 C27.91713928 183.77026794 21.44687087 177.07198662 15.53515625 169.61328125 C10.29313756 162.44607161 10.29313756 162.44607161 3.5 157.0625 C3.62037305 161.48766088 3.74469429 165.91269008 3.87231445 170.33764648 C3.91500533 171.83566452 3.95670945 173.33371108 3.99731445 174.83178711 C4.24160466 183.81623804 4.61856815 192.76386859 5.27661133 201.72900391 C6.04768263 213.23524164 6.04768263 213.23524164 5.5 217.0625 C-2.21817897 222.20795265 -15.34663888 220.24879855 -24.4921875 220.24780273 C-26.76060194 220.25001032 -29.02854465 220.26830431 -31.296875 220.28710938 C-32.76562337 220.29004095 -34.234374 220.29202732 -35.703125 220.29296875 C-37.00926758 220.29707764 -38.31541016 220.30118652 -39.66113281 220.30541992 C-45.14508902 219.95840031 -49.84966813 219.16272125 -54.5 216.0625 C-62.56566324 196.93620298 -62.3888087 173.42326322 -63.5 153.0625 C-63.54343536 152.30802582 -63.58687073 151.55355164 -63.63162231 150.7762146 C-64.60464493 133.48426799 -64.6876411 116.19736001 -64.68530273 98.8840332 C-64.68522136 95.7130769 -64.69220142 92.54226473 -64.70581055 89.37133789 C-64.78399103 70.83787048 -64.5910039 52.50601921 -62.5 34.0625 C-62.41722809 33.31827789 -62.33445618 32.57405579 -62.24917603 31.80728149 C-61.76023523 27.50573336 -61.18344207 23.22175092 -60.5625 18.9375 C-60.40587891 17.76058594 -60.24925781 16.58367187 -60.08789062 15.37109375 C-58.55917745 4.63964904 -58.55917745 4.63964904 -55.5 0.0625 C-41.24457172 -9.33312319 -15.7964037 -3.18414741 0 0 Z M-47.19140625 14.7265625 C-50.19220185 20.08320658 -51.31096527 26.09876842 -52.5 32.0625 C-52.65098145 32.80161621 -52.80196289 33.54073242 -52.95751953 34.30224609 C-54.99711671 44.68064941 -55.79219052 54.92645563 -55.875 65.5 C-55.88885742 66.57233887 -55.90271484 67.64467773 -55.91699219 68.74951172 C-55.9648232 75.93836617 -55.9648232 75.93836617 -52.5 82.0625 C-50.62042756 83.2201585 -50.62042756 83.2201585 -48.5 83.0625 C-45.42458518 81.3051201 -44.64018002 80.48304006 -43.5 77.0625 C-43.38144637 74.3513656 -43.31471938 71.66132772 -43.2890625 68.94921875 C-43.26094685 67.29100655 -43.23228222 65.63280359 -43.203125 63.97460938 C-43.1622607 61.37948339 -43.12535545 58.78452099 -43.09863281 56.18920898 C-42.79472375 28.98672817 -42.79472375 28.98672817 -36.5 20.0625 C-33.96922211 18.81556892 -31.4717902 18.07297337 -28.77734375 17.25 C-26.2941176 16.22011825 -26.2941176 16.22011825 -25.1328125 13.61328125 C-24.24251262 10.99847157 -24.24251262 10.99847157 -25.4375 8.25 C-27.37661639 5.75707664 -27.37661639 5.75707664 -30.6875 5.5 C-37.43301222 6.49523951 -42.95023095 9.2785487 -47.19140625 14.7265625 Z M-19.5 9.0625 C-19.14736215 13.56567123 -19.14736215 13.56567123 -16.5 17.0625 C-14.08582128 17.64652133 -14.08582128 17.64652133 -11.5 17.0625 C-9.16369252 14.66390956 -9.16369252 14.66390956 -7.5 12.0625 C-8.8089572 8.94052522 -8.8089572 8.94052522 -11.5 7.0625 C-16.00380153 6.59318821 -16.00380153 6.59318821 -19.5 9.0625 Z " fill="#FEE600" transform="translate(1385.5,152.9375)"/>
<path d="M0 0 C2.55197133 2.23058364 4.99917156 4.52849043 7.41796875 6.90234375 C8.05734375 7.51722656 8.69671875 8.13210937 9.35546875 8.765625 C20.27302821 20.14620595 24.5946532 35.37777404 24.79296875 50.77734375 C24.80706787 51.58647217 24.82116699 52.39560059 24.83569336 53.22924805 C24.79554925 58.12632133 24.40111736 61.82334463 21.41796875 65.90234375 C16.39709433 68.77319026 11.6178872 69.51862139 5.91796875 70.02734375 C5.12825684 70.1051709 4.33854492 70.18299805 3.52490234 70.26318359 C1.15696186 70.49040299 -1.21193526 70.69898931 -3.58203125 70.90234375 C-4.83757812 71.01578125 -6.093125 71.12921875 -7.38671875 71.24609375 C-14.72098973 71.82384814 -22.0395868 72.02565991 -29.39453125 72.08984375 C-30.27351074 72.10289551 -31.15249023 72.11594727 -32.05810547 72.12939453 C-33.2861792 72.13108643 -33.2861792 72.13108643 -34.5390625 72.1328125 C-35.6369812 72.13897583 -35.6369812 72.13897583 -36.75708008 72.14526367 C-38.58203125 71.90234375 -38.58203125 71.90234375 -40.58203125 69.90234375 C-40.95285643 67.24476328 -41.23125054 64.63467198 -41.45703125 61.96484375 C-42.43337805 52.49029474 -44.06406438 43.40796326 -50.890625 36.2734375 C-55.64092257 32.42273439 -61.20836073 31.31644543 -67.2265625 31.5546875 C-75.49584531 32.77519525 -83.59948339 37.12103629 -88.96484375 43.5625 C-91.79947409 47.91355845 -92.58241298 51.90742671 -91.58203125 56.90234375 C-88.70504471 62.75786694 -84.79727839 65.37088126 -78.89453125 67.71484375 C-77.74223022 68.20223022 -77.74223022 68.20223022 -76.56665039 68.69946289 C-70.72908533 71.13249642 -64.80571572 73.34067021 -58.88793945 75.56933594 C-42.28215239 81.83276392 -27.35272598 88.5593715 -13.58203125 99.90234375 C-12.78410156 100.5365625 -11.98617188 101.17078125 -11.1640625 101.82421875 C0.91580066 111.88730613 10.21714496 126.02038231 12.234375 141.8046875 C13.21436335 158.3393846 8.53262987 173.96095347 -2.42138672 186.53662109 C-17.32800896 202.94990089 -35.56470571 211.63516692 -57.58203125 213.90234375 C-70.72924264 214.50691033 -83.92339901 214.90065854 -96.58203125 210.90234375 C-98.21785156 210.40927734 -98.21785156 210.40927734 -99.88671875 209.90625 C-115.30388528 204.66441338 -126.0623214 194.30162108 -133.39453125 179.96484375 C-138.23378141 169.96560555 -141.68718003 159.12057079 -139.58203125 147.90234375 C-132.68745471 138.86194136 -117.43223262 138.30970587 -106.81225586 136.78051758 C-89.4921699 134.47955212 -89.4921699 134.47955212 -85.30078125 137.6015625 C-83.24886488 140.34833237 -83.12077966 141.76185786 -83.08203125 145.15234375 C-82.69961818 151.653366 -81.20503375 156.49792479 -76.33203125 160.96484375 C-72.55141124 162.25369148 -69.32504213 162.15253969 -65.58203125 160.90234375 C-61.81074685 157.86891934 -58.9890063 154.7141714 -58.28125 149.82421875 C-58.23384407 141.03831902 -60.620965 134.71078908 -66.77856445 128.31225586 C-70.04642477 125.50314246 -73.37158304 123.57026101 -77.1796875 121.58984375 C-77.91994675 121.20180069 -78.66020599 120.81375763 -79.42289734 120.41395569 C-88.75784132 115.63852068 -98.55706209 112.0600727 -108.37524414 108.42016602 C-126.5067791 101.66310558 -140.63993829 94.1870149 -149.19921875 76.109375 C-154.21780355 64.47022776 -152.81581081 48.75337439 -148.84375 36.9765625 C-141.71311488 19.60253824 -129.00134806 5.03185184 -112.58203125 -4.09765625 C-111.68226563 -4.61972656 -110.7825 -5.14179688 -109.85546875 -5.6796875 C-101.21362863 -10.38151511 -92.10137169 -12.85978406 -82.58203125 -15.09765625 C-81.53789063 -15.34644531 -80.49375 -15.59523437 -79.41796875 -15.8515625 C-53.1365412 -20.91658156 -21.29889292 -17.30333661 0 0 Z M-9.21875 145.44921875 C-11.03716254 148.72131925 -11.18591838 151.87052207 -11.45703125 155.52734375 C-12.40687542 165.02470976 -15.09351235 172.53710269 -22.58203125 178.90234375 C-23.25878906 179.50304687 -23.93554688 180.10375 -24.6328125 180.72265625 C-29.3533414 184.21147099 -34.6384291 186.6112453 -39.89648438 189.19140625 C-40.72470703 189.61164063 -41.55292969 190.031875 -42.40625 190.46484375 C-43.15994873 190.83738281 -43.91364746 191.20992187 -44.69018555 191.59375 C-46.93747286 193.14820348 -47.73825953 194.31364837 -48.58203125 196.90234375 C-47.45958132 199.20069361 -46.39725244 201.08712256 -44.58203125 202.90234375 C-31.38038666 202.66231385 -19.42637593 191.55755129 -10.14453125 183.02734375 C-2.65593365 175.15033341 1.33826645 162.92950416 1.4453125 152.1484375 C1.05429967 147.54254887 1.05429967 147.54254887 -1.58203125 143.90234375 C-5.7953689 143.30166415 -5.7953689 143.30166415 -9.21875 145.44921875 Z M-65.26953125 196.02734375 C-67.19590679 198.77930881 -67.05967491 200.62707292 -66.58203125 203.90234375 C-65.02405243 206.05017046 -65.02405243 206.05017046 -62.58203125 206.90234375 C-59.87368072 206.55256551 -59.87368072 206.55256551 -57.58203125 204.90234375 C-56.2212509 202.37861474 -56.2212509 202.37861474 -55.58203125 199.90234375 C-57.89435547 197.339844 -57.89435547 197.339844 -60.58203125 194.90234375 C-63.50402653 194.62499365 -63.50402653 194.62499365 -65.26953125 196.02734375 Z " fill="#FEE600" transform="translate(1080.58203125,159.09765625)"/>
<path d="M0 0 C1 3 1 3 -0.58984375 6.23046875 C-1.36367194 7.55461609 -2.14688245 8.87330818 -2.9375 10.1875 C-6.34969554 16.03427373 -9.56470998 21.92959535 -12.5625 28 C-12.90853271 28.70020264 -13.25456543 29.40040527 -13.61108398 30.12182617 C-14.41072598 31.74624585 -15.20590457 33.37286169 -16 35 C-16.66 35 -17.32 35 -18 35 C-18.22558594 35.50917969 -18.45117188 36.01835937 -18.68359375 36.54296875 C-20.53427153 39.99720116 -22.80924733 43.11105466 -25.0625 46.3125 C-46.53041962 77.33069341 -60.52974182 111.59577203 -66 149 C-66.19263428 150.30855957 -66.19263428 150.30855957 -66.38916016 151.64355469 C-73.34231578 201.53123071 -62.49723406 251.09533211 -39.25 295.3125 C-38.8979248 295.98659912 -38.54584961 296.66069824 -38.18310547 297.35522461 C-35.77843993 301.84299503 -33.02869762 305.90702227 -30 310 C-30.33 310.66 -30.66 311.32 -31 312 C-31.87140625 311.05640625 -32.7428125 310.1128125 -33.640625 309.140625 C-34.84333147 307.84336185 -36.04649106 306.54651871 -37.25 305.25 C-37.88679687 304.56260742 -38.52359375 303.87521484 -39.1796875 303.16699219 C-42.09288755 300.04052501 -45.00906184 296.94225798 -48.109375 294 C-75.39520591 268.04158789 -96.68460979 227.9619716 -104 191 C-104.86238281 191.03480469 -105.72476563 191.06960938 -106.61328125 191.10546875 C-144.87169283 191.95386014 -180.64382808 175.44145036 -208.06591797 149.38818359 C-234.69020151 123.35737472 -250.84971639 87.30919892 -252 50 C-252.03996094 49.07960937 -252.07992188 48.15921875 -252.12109375 47.2109375 C-252.4191755 34.48109355 -250.84513039 21.39663957 -248 9 C-243.29368227 10.41737689 -238.9279587 12.34727778 -234.46484375 14.3762207 C-174.15732383 41.62316632 -104.37428116 43.29307485 -42.38671875 20.49609375 C-27.76161983 14.89933176 -13.20263542 8.48327232 0 0 Z M-217 73 C-216.4340922 78.78266708 -215.30914485 83.94396613 -213.4375 89.4375 C-213.17356445 90.21391846 -212.90962891 90.99033691 -212.63769531 91.7902832 C-205.6911194 111.63219352 -195.12635525 128.4982899 -181 144 C-180.14921875 144.93457031 -179.2984375 145.86914062 -178.421875 146.83203125 C-161.75534309 164.27201 -133.18974696 185.05575545 -108.0625 186.125 C-107.381875 186.08375 -106.70125 186.0425 -106 186 C-106.85139292 177.59249493 -108.17889368 169.28373874 -109.5390625 160.9453125 C-111.41066052 149.12910413 -112.17648564 137.4575397 -112.125 125.5 C-112.12306641 124.39156738 -112.12113281 123.28313477 -112.11914062 122.14111328 C-112.06561007 111.74280204 -111.61698129 101.37850662 -111 91 C-111.61593018 90.98541748 -112.23186035 90.97083496 -112.86645508 90.95581055 C-145.57300419 90.10406182 -176.47521993 85.74723426 -207.65283203 75.74072266 C-210.75199187 74.76268532 -213.86944318 73.87174628 -217 73 Z M-103 189 C-103 189.33 -103 189.66 -103 190 C-101.02 190 -99.04 190 -97 190 C-97 189.67 -97 189.34 -97 189 C-98.98 189 -100.96 189 -103 189 Z " fill="#B4D131" transform="translate(681,124)"/>
<path d="M0 0 C2.0998314 2.03929088 2.65454674 3.72403593 2.85270691 6.63090515 C2.85651871 7.37540421 2.86033051 8.11990326 2.86425781 8.88696289 C2.87063766 9.73602707 2.87701752 10.58509125 2.8835907 11.45988464 C2.88525993 12.83784966 2.88525993 12.83784966 2.88696289 14.24365234 C2.89029129 15.20028275 2.89361969 16.15691315 2.89704895 17.14253235 C2.90211806 19.17598999 2.90445728 21.20945597 2.90429688 23.24291992 C2.90645393 26.29995269 2.92452689 29.35660676 2.94360352 32.41357422 C2.97493693 43.66984419 2.50756338 54.54382355 0.71899414 65.66943359 C-2.91904433 66.79830323 -6.36626069 66.82698177 -10.16088867 66.87475586 C-11.18588974 66.88960526 -11.18588974 66.88960526 -12.2315979 66.90475464 C-14.4824074 66.93625403 -16.73323797 66.96108111 -18.98413086 66.98583984 C-20.54783669 67.00641937 -22.11153708 67.0274161 -23.67523193 67.04881287 C-27.78511136 67.10393045 -31.89504014 67.15338508 -36.00500488 67.20166016 C-40.2012164 67.25195061 -44.39735651 67.30759725 -48.59350586 67.36279297 C-56.8226121 67.47024835 -65.05177819 67.57172118 -73.28100586 67.66943359 C-73.31859009 68.60009644 -73.31859009 68.60009644 -73.35693359 69.54956055 C-73.47297307 72.36055756 -73.59566345 75.171226 -73.71850586 77.98193359 C-73.75782227 78.95839844 -73.79713867 79.93486328 -73.83764648 80.94091797 C-73.87954102 81.87871094 -73.92143555 82.81650391 -73.96459961 83.78271484 C-74.00125732 84.64678955 -74.03791504 85.51086426 -74.07568359 86.40112305 C-74.28100586 88.66943359 -74.28100586 88.66943359 -75.28100586 91.66943359 C-60.43100586 91.66943359 -45.58100586 91.66943359 -30.28100586 91.66943359 C-28.70702149 95.60439451 -28.0219042 97.42214738 -27.83178711 101.36474609 C-27.78763672 102.2408252 -27.74348633 103.1169043 -27.69799805 104.01953125 C-27.66351562 104.93524902 -27.6290332 105.8509668 -27.59350586 106.79443359 C-27.55515625 107.73206543 -27.51680664 108.66969727 -27.47729492 109.63574219 C-26.87288159 126.8854592 -26.87288159 126.8854592 -29.52810669 130.24940491 C-31.72558932 132.02959194 -33.0716742 132.15256717 -35.87426758 132.35083008 C-36.76386169 132.415112 -37.65345581 132.47939392 -38.57000732 132.54562378 C-42.64677549 132.73180754 -46.70818706 132.79336836 -50.78881836 132.76708984 C-51.64031464 132.7656749 -52.49181091 132.76425995 -53.36911011 132.76280212 C-56.04811345 132.75727278 -58.72702843 132.74473433 -61.40600586 132.73193359 C-63.23933797 132.72690943 -65.07267142 132.72234815 -66.90600586 132.71826172 C-71.36437245 132.70732666 -75.82267425 132.69011231 -80.28100586 132.66943359 C-79.95100586 133.32943359 -79.62100586 133.98943359 -79.28100586 134.66943359 C-79.05966588 136.47980182 -78.88939104 138.29655459 -78.74584961 140.11474609 C-78.65883789 141.19111328 -78.57182617 142.26748047 -78.48217773 143.37646484 C-78.35166016 145.06835938 -78.35166016 145.06835938 -78.21850586 146.79443359 C-78.12762695 147.93009766 -78.03674805 149.06576172 -77.94311523 150.23583984 C-77.7187136 153.0467656 -77.4981742 155.85794126 -77.28100586 158.66943359 C-53.94344439 159.09274642 -31.37677026 157.27208992 -9.22851562 149.25390625 C-6.54549845 148.44869839 -4.05649893 148.45593413 -1.28100586 148.66943359 C0.54524565 156.50309138 1.42392361 164.38355748 2.15161133 172.3815918 C2.34277834 174.46866006 2.54595898 176.55431649 2.75024414 178.64013672 C3.13261292 182.64695158 3.44191861 186.65385344 3.71899414 190.66943359 C3.80503906 191.90097168 3.89108398 193.13250977 3.97973633 194.40136719 C4.30998645 202.7173462 4.30998645 202.7173462 1.80102539 206.75927734 C-2.19551883 209.236223 -6.12232101 210.81056659 -10.59350586 212.23193359 C-11.5208252 212.527854 -12.44814453 212.82377441 -13.40356445 213.12866211 C-42.98043859 222.16590295 -81.90681351 225.41642274 -110.74584961 212.07177734 C-123.35379378 205.09758326 -131.18725736 195.4075323 -135.28100586 181.66943359 C-137.89454093 170.66361375 -138.87987419 159.95487282 -138.84350586 148.66943359 C-138.84435181 147.84437317 -138.84519775 147.01931274 -138.84606934 146.16925049 C-138.80536522 126.73755633 -137.1513869 107.39436436 -135.53100586 88.04443359 C-135.43589155 86.89862823 -135.43589155 86.89862823 -135.33885574 85.72967529 C-133.94062128 68.91349696 -132.33113169 52.1367613 -130.20288086 35.39599609 C-130.04152649 34.11244232 -129.88017212 32.82888855 -129.71392822 31.50643921 C-127.67758451 16.06601225 -127.67758451 16.06601225 -124.28100586 12.66943359 C-122.45252991 12.12280273 -122.45252991 12.12280273 -120.21484375 11.70458984 C-119.3800499 11.54595459 -118.54525604 11.38731934 -117.68516541 11.22387695 C-116.77964432 11.06153564 -115.87412323 10.89919434 -114.94116211 10.73193359 C-113.99982925 10.55863525 -113.0584964 10.38533691 -112.08863831 10.20678711 C-102.33325178 8.4426281 -92.54223796 6.9927546 -82.71850586 5.66943359 C-81.79576874 5.54381042 -80.87303162 5.41818726 -79.92233276 5.28875732 C-65.09390271 3.28319458 -50.24435994 1.65573796 -35.34350586 0.29443359 C-33.96230057 0.16633301 -33.96230057 0.16633301 -32.55319214 0.03564453 C-4.36647231 -2.5470699 -4.36647231 -2.5470699 0 0 Z " fill="#FEE600" transform="translate(1659.281005859375,153.33056640625)"/>
<path d="M0 0 C4.48390152 3.67430819 6.3827078 7.47544332 8 13 C8.25447559 15.78302002 8.25447559 15.78302002 8.26069641 18.69238281 C8.26778122 19.80262817 8.27486603 20.91287354 8.28216553 22.0567627 C8.27968811 23.26006226 8.27721069 24.46336182 8.2746582 25.703125 C8.27976913 26.98183472 8.28488007 28.26054443 8.29014587 29.57800293 C8.30349847 33.07383604 8.30411887 36.5695608 8.30158257 40.06541443 C8.30051058 42.98790476 8.30540193 45.91037337 8.310188 48.83285904 C8.32126968 55.72843307 8.32172777 62.62395263 8.31567383 69.51953125 C8.30963081 76.62576002 8.32195634 83.73179096 8.3432439 90.83798599 C8.36087127 96.94771713 8.36685958 103.05738534 8.36360615 109.16714096 C8.36179537 112.81253189 8.36440912 116.45778159 8.37832069 120.10314941 C8.39325345 124.16785497 8.38391906 128.2321586 8.37231445 132.296875 C8.37995819 133.50017456 8.38760193 134.70347412 8.39547729 135.9432373 C8.34858244 143.36588835 7.69751296 148.02581905 2.5625 153.6875 C-3.28460849 158.96415888 -8.55057258 161.64682789 -16.58984375 161.3515625 C-26.89989921 159.84766462 -32.92382287 152.34013536 -39.35229492 144.90405273 C-46.90601305 136.17513768 -54.8844035 127.95918883 -63.05688477 119.81274414 C-65.06577864 117.80923014 -67.06924389 115.80039848 -69.07226562 113.79101562 C-75.212648 107.64739626 -81.35651722 101.60419923 -88 96 C-90.64085822 93.61539756 -93.2711525 91.21984524 -95.8984375 88.8203125 C-97.86723421 86.96323333 -97.86723421 86.96323333 -100 86 C-99.75403076 86.98025146 -99.50806152 87.96050293 -99.25463867 88.97045898 C-97.54302814 95.80008346 -95.84144388 102.63163988 -94.17578125 109.47265625 C-93.5560146 112.0029296 -92.93488232 114.53286877 -92.3125 117.0625 C-92.14758057 117.73355774 -91.98266113 118.40461548 -91.81274414 119.0960083 C-89.86533664 126.98624665 -87.80708142 134.82568669 -85.48046875 142.61328125 C-85.27271317 143.31109207 -85.06495758 144.00890289 -84.85090637 144.7278595 C-83.85299965 148.06644825 -82.83715637 151.39811924 -81.79418945 154.72290039 C-79.26842743 163.04014058 -77.18574712 170.87427289 -80.4375 179.25 C-83.52578879 184.72671358 -89.15657852 188.05219284 -95 190 C-110.60992534 191.20991797 -110.60992534 191.20991797 -117 186 C-121.96342037 180.0136938 -124.54435256 173.57696231 -126.6875 166.1875 C-127.17561157 164.5475708 -127.17561157 164.5475708 -127.67358398 162.87451172 C-136.45779157 132.67052414 -143.65115341 101.99494904 -149 71 C-149.1297522 70.25093384 -149.25950439 69.50186768 -149.39318848 68.73010254 C-150.17578066 64.18789034 -150.9322919 59.64226939 -151.65679932 55.09042358 C-151.88119029 53.68280222 -152.1090344 52.27572586 -152.34075928 50.86929321 C-154.11525887 39.99140848 -155.79748709 28.4949026 -149 19 C-144.82876599 14.39401766 -140.38826687 12.3110697 -134.234375 11.74609375 C-124.07723666 11.3505268 -117.79360964 15.18340923 -109.6875 20.875 C-109.01162842 21.34550781 -108.33575684 21.81601562 -107.6394043 22.30078125 C-95.35349449 30.90580734 -83.21994585 39.66495641 -71.890625 49.5078125 C-69.22581801 51.80530826 -66.50586283 54.00096212 -63.75 56.1875 C-54.68959441 63.5457288 -46.23890843 71.73887599 -38 80 C-37.99120064 78.80849083 -37.99120064 78.80849083 -37.98222351 77.59291077 C-37.9241134 70.07555756 -37.85193332 62.5585289 -37.76428509 55.04146671 C-37.71972058 51.17764977 -37.68043471 47.31393489 -37.65356445 43.44995117 C-37.62739135 39.71499516 -37.58689254 35.98043488 -37.53681374 32.24572563 C-37.52023901 30.82696932 -37.50866661 29.40814472 -37.50238609 27.9893055 C-37.40780092 8.57053191 -37.40780092 8.57053191 -30.7109375 1.28515625 C-21.20714933 -5.85353395 -10.13369093 -5.20419971 0 0 Z " fill="#B3D334" transform="translate(997,452)"/>
<path d="M0 0 C13.29864923 9.95419726 19.18685519 22.61252191 24 38 C25.32 37.34 26.64 36.68 28 36 C27.36989014 36.69279053 26.73978027 37.38558105 26.09057617 38.09936523 C23.7521628 41.34386941 23.19273007 43.490038 22.55078125 47.41015625 C22.34259766 48.64830078 22.13441406 49.88644531 21.91992188 51.16210938 C21.71947266 52.44923828 21.51902344 53.73636719 21.3125 55.0625 C21.10044922 56.32255859 20.88839844 57.58261719 20.66992188 58.88085938 C13.07336973 105.25098052 22.53562144 150.31769497 48.85009766 189.26757812 C50.31020681 191.46735191 51.66982864 193.71970625 53 196 C51.2984375 196.433125 51.2984375 196.433125 49.5625 196.875 C48.386875 197.24625 47.21125 197.6175 46 198 C42.31800278 205.36399443 45.22183199 215.44708251 47.67407227 222.84643555 C53.97278228 240.59389033 64.27818385 256.59221176 77.35546875 270.1171875 C79 272 79 272 80 275 C81.32258472 275.68774405 82.6583584 276.35021539 84 277 C85.65971443 278.4186998 87.28226224 279.88149823 88.875 281.375 C91.58466415 283.87866629 93.95572782 285.97343669 97.125 287.875 C101.01676863 290.75152464 103.34480137 294.34597721 106.09765625 298.29296875 C108.24847643 301.35358144 110.55505851 304.1730364 113 307 C112.34 307.33 111.68 307.66 111 308 C109.06738281 307.1706543 109.06738281 307.1706543 106.703125 305.82421875 C105.83341064 305.33083008 104.96369629 304.83744141 104.06762695 304.32910156 C103.13781006 303.78737305 102.20799316 303.24564453 101.25 302.6875 C100.3014917 302.13932617 99.3529834 301.59115234 98.37573242 301.02636719 C90.56226106 296.45023661 83.18414451 291.5031486 76 286 C75.14792969 285.34773438 74.29585937 284.69546875 73.41796875 284.0234375 C70.91031129 282.05458205 68.44986768 280.04033756 66 278 C65.47438477 277.56461914 64.94876953 277.12923828 64.40722656 276.68066406 C52.08035092 266.43522322 40.87214206 255.68128817 31 243 C29.98059 241.7212575 28.96105003 240.4426186 27.94140625 239.1640625 C20.10994572 229.24413476 13.25023529 218.98178743 7 208 C6.57090332 207.25024902 6.14180664 206.50049805 5.69970703 205.72802734 C-6.89721765 183.46757772 -16.0933225 158.76366208 -20.625 133.5625 C-22.20016714 124.98552283 -25.38832981 118.78521142 -32 113 C-32.721875 112.319375 -33.44375 111.63875 -34.1875 110.9375 C-40.0153137 106.9227839 -46.67864112 105.07612287 -53.4375 103.1875 C-67.05039263 99.03820096 -78.63572735 89.70190746 -85.46020508 77.1784668 C-93.54804116 61.20598751 -95.2606351 45.22857994 -90 28 C-83.94665048 12.44625472 -73.34802617 0.47386727 -57.96875 -6.34375 C-38.64994111 -13.61426947 -17.22718056 -11.45915135 0 0 Z " fill="#E9DF12" transform="translate(298,524)"/>
<path d="M0 0 C0.91193115 -0.01015137 1.8238623 -0.02030273 2.76342773 -0.03076172 C10.15829407 0.06595662 16.70283094 1.3661618 22.375 6.5 C22.9525 7.00660156 23.53 7.51320313 24.125 8.03515625 C25.375 9.4375 25.375 9.4375 25.375 11.4375 C25.94605469 11.50066406 26.51710938 11.56382812 27.10546875 11.62890625 C39.72075848 13.53423618 49.57393367 20.52401129 58.375 29.4375 C58.93703125 29.97761719 59.4990625 30.51773437 60.078125 31.07421875 C74.63357338 46.28083193 76.89060035 69.1367775 76.6484375 89.015625 C75.86611262 115.42877181 61.39243888 139.72865299 42.89404297 157.89160156 C28.138305 171.69519729 10.20280042 179.94551196 -10.19921875 179.640625 C-26.97506832 178.64593381 -42.09827295 172.85545837 -54.625 161.4375 C-55.44355469 160.71046875 -56.26210937 159.9834375 -57.10546875 159.234375 C-68.44539413 148.5978338 -74.43014312 136.12896116 -78.625 121.4375 C-78.83672852 120.70241211 -79.04845703 119.96732422 -79.26660156 119.20996094 C-86.11767705 94.20516405 -85.75761203 63.81249047 -73.625 40.4375 C-63.06306165 22.0295503 -45.90287551 9.2182108 -25.58203125 3.18359375 C-17.09024622 0.90493602 -8.78321861 0.06926945 0 0 Z M-31.44140625 57.80078125 C-40.87339896 72.77833112 -40.13216072 93.26947685 -36.4375 110.125 C-33.97006952 118.48088777 -29.41675856 127.0202391 -21.625 131.4375 C-13.81098219 134.58325789 -6.60641266 135.30027355 1.375 132.4375 C15.24181725 125.78296634 24.33445075 113.66763866 29.47265625 99.38671875 C31.25559332 92.86033978 31.66158449 86.4162475 31.75 79.6875 C31.76409912 78.90745605 31.77819824 78.12741211 31.79272461 77.32373047 C31.73362182 70.25084708 30.52051485 63.32418234 25.5 58.0625 C21.29436628 54.79842607 16.53679757 54.14904488 11.41015625 53.1484375 C6.9310351 52.09927399 3.88420277 50.35830353 1 46.6875 C-1.28338304 44.93105151 -3.37882819 44.97109476 -6.1875 45.08984375 C-15.526253 46.42181333 -25.55834849 50.14648029 -31.44140625 57.80078125 Z " fill="#B3D334" transform="translate(1266.625,433.5625)"/>
<path d="M0 0 C6.34197511 5.85233732 9.74146495 12.03345703 10.125 20.7109375 C9.81591959 27.84969803 7.49287204 32.69906522 2.25 37.5234375 C-4.3541441 42.63991124 -11.24698625 42.87615223 -19.375 42.1484375 C-22.92759121 40.83266298 -25.20566004 39.28014636 -28.1875 36.9609375 C-35.32514368 32.90227737 -43.04153749 35.5343725 -50.65234375 37.296875 C-53.48871534 37.95295957 -53.48871534 37.95295957 -55.375 40.1484375 C-55.76067623 43.02474578 -55.84000544 44.52327913 -54.08203125 46.88671875 C-48.93082306 51.16700102 -43.48338101 54.66818244 -37.74609375 58.1171875 C-18.55175776 69.68272019 -3.55549329 82.96618468 2.4375 105.2734375 C5.69452708 120.94439066 4.51172696 138.47484515 -4.375 152.1484375 C-12.55290854 163.04691759 -22.48591995 169.13399527 -35.75 171.8359375 C-55.80261091 173.56461085 -71.50542076 167.65059874 -87.02734375 155.01953125 C-107.81129502 137.49022671 -107.81129502 137.49022671 -109.828125 125.44140625 C-110.31013739 117.60870491 -107.86490474 111.25318898 -102.80078125 105.296875 C-98.02469096 100.7768455 -92.54016071 98.22828084 -85.9296875 98.1015625 C-75.68529798 99.3218973 -69.38621426 107.79327879 -63.09765625 115.2265625 C-56.34437026 122.78659243 -56.34437026 122.78659243 -47.234375 126.34375 C-46.53828125 126.32054687 -45.8421875 126.29734375 -45.125 126.2734375 C-43.8875 126.2321875 -42.65 126.1909375 -41.375 126.1484375 C-40.9316003 119.05404237 -42.42331905 113.38259297 -46.75 107.6484375 C-51.35676325 102.61976772 -57.5630644 99.57886487 -63.375 96.1484375 C-71.42475937 91.13350707 -78.50616769 85.68220482 -85.375 79.1484375 C-86.01179688 78.60960937 -86.64859375 78.07078125 -87.3046875 77.515625 C-94.90041235 70.79762836 -100.52700581 59.13618028 -101.59204102 49.10400391 C-102.47328969 33.132955 -98.98490664 20.75003339 -88.75390625 8.15234375 C-68.29965348 -13.87153993 -23.98107898 -18.69577539 0 0 Z " fill="#B3D334" transform="translate(1599.375,471.8515625)"/>
<path d="M0 0 C6.34197511 5.85233732 9.74146495 12.03345703 10.125 20.7109375 C9.81591959 27.84969803 7.49287204 32.69906522 2.25 37.5234375 C-4.3541441 42.63991124 -11.24698625 42.87615223 -19.375 42.1484375 C-22.92759121 40.83266298 -25.20566004 39.28014636 -28.1875 36.9609375 C-35.32514368 32.90227737 -43.04153749 35.5343725 -50.65234375 37.296875 C-53.48871534 37.95295957 -53.48871534 37.95295957 -55.375 40.1484375 C-55.76067623 43.02474578 -55.84000544 44.52327913 -54.08203125 46.88671875 C-48.93082306 51.16700102 -43.48338101 54.66818244 -37.74609375 58.1171875 C-18.55175776 69.68272019 -3.55549329 82.96618468 2.4375 105.2734375 C5.69452708 120.94439066 4.51172696 138.47484515 -4.375 152.1484375 C-12.55290854 163.04691759 -22.48591995 169.13399527 -35.75 171.8359375 C-55.80261091 173.56461085 -71.50542076 167.65059874 -87.02734375 155.01953125 C-107.81129502 137.49022671 -107.81129502 137.49022671 -109.828125 125.44140625 C-110.31013739 117.60870491 -107.86490474 111.25318898 -102.80078125 105.296875 C-98.02469096 100.7768455 -92.54016071 98.22828084 -85.9296875 98.1015625 C-75.68529798 99.3218973 -69.38621426 107.79327879 -63.09765625 115.2265625 C-56.34437026 122.78659243 -56.34437026 122.78659243 -47.234375 126.34375 C-46.53828125 126.32054687 -45.8421875 126.29734375 -45.125 126.2734375 C-43.8875 126.2321875 -42.65 126.1909375 -41.375 126.1484375 C-40.9316003 119.05404237 -42.42331905 113.38259297 -46.75 107.6484375 C-51.35676325 102.61976772 -57.5630644 99.57886487 -63.375 96.1484375 C-71.42475937 91.13350707 -78.50616769 85.68220482 -85.375 79.1484375 C-86.01179688 78.60960937 -86.64859375 78.07078125 -87.3046875 77.515625 C-94.90041235 70.79762836 -100.52700581 59.13618028 -101.59204102 49.10400391 C-102.47328969 33.132955 -98.98490664 20.75003339 -88.75390625 8.15234375 C-68.29965348 -13.87153993 -23.98107898 -18.69577539 0 0 Z " fill="#B3D334" transform="translate(1461.375,471.8515625)"/>
<path d="M0 0 C4.01909792 3.45829356 6.23287252 7.15136203 6.99560547 12.45483398 C7.19357298 20.13221047 4.98474654 26.57500078 2.4375 33.75 C1.99408854 35.04263793 1.55239725 36.33586702 1.11230469 37.62963867 C-1.14332835 44.22969302 -3.48150528 50.79880826 -5.85723877 57.35649109 C-6.99471806 60.5063981 -8.11557637 63.66210931 -9.23522949 66.81838989 C-10.04816375 69.08502743 -10.88724209 71.34080413 -11.72753906 73.59741211 C-14.40574904 80.9841134 -16.41061287 86.74146584 -13.3125 94.3125 C-12.99506836 95.249729 -12.67763672 96.18695801 -12.35058594 97.15258789 C-11.23026039 100.43862037 -10.03234396 103.6871489 -8.8125 106.9375 C-8.37252686 108.11739502 -7.93255371 109.29729004 -7.47924805 110.51293945 C-2.55024772 123.57080473 3.03217221 136.3263115 8.8359375 149.015625 C9.16182861 149.7372583 9.48771973 150.4588916 9.82348633 151.20239258 C10.67581551 153.0860513 11.54232132 154.96327834 12.41015625 156.83984375 C15.00162807 163.8851601 15.11563795 170.21283578 12.6875 177.3125 C9.60542983 183.24833884 5.01624194 187.20291935 -1.3125 189.3125 C-8.82708652 189.9395722 -16.21654869 190.31224954 -22.3125 185.3125 C-27.15559501 180.28589398 -29.91508986 174.58936376 -32.875 168.3125 C-33.38949707 167.23033203 -33.90399414 166.14816406 -34.43408203 165.03320312 C-42.18872372 148.45545014 -48.90029104 131.35317452 -55.0625 114.125 C-55.30274902 113.4546875 -55.54299805 112.784375 -55.79052734 112.09375 C-56.74100561 109.34743383 -57.3125 107.24569969 -57.3125 104.3125 C-57.88210449 104.15394531 -58.45170898 103.99539063 -59.03857422 103.83203125 C-66.33763069 101.72874095 -73.37432907 99.09871707 -80.4375 96.3125 C-82.25519897 95.59598267 -82.25519897 95.59598267 -84.10961914 94.86499023 C-92.41215731 91.56582964 -100.61516831 88.07116094 -108.75 84.375 C-110.24007568 83.70307617 -110.24007568 83.70307617 -111.76025391 83.01757812 C-119.13260011 79.60605097 -124.44895436 76.70376409 -127.58203125 68.94140625 C-129.32915511 62.65362892 -129.41363208 55.96814752 -126.75 49.9375 C-123.39785109 44.23171463 -118.56109122 40.39536374 -112.3125 38.3125 C-101.6731517 36.69272742 -92.94613647 41.21256862 -83.53125 45.47265625 C-82.25495728 46.04995483 -82.25495728 46.04995483 -80.95288086 46.63891602 C-79.29635136 47.39305346 -77.6431876 48.15465288 -75.99438477 48.92553711 C-68.92649941 52.1862535 -61.6637385 54.77352335 -54.3125 57.3125 C-53.70776855 55.52803467 -53.70776855 55.52803467 -53.09082031 53.70751953 C-51.5802084 49.25232389 -50.06601055 44.79835371 -48.55078125 40.34472656 C-47.89812455 38.4248066 -47.24641319 36.50456498 -46.59570312 34.58398438 C-45.65489046 31.80772124 -44.71057217 29.03267072 -43.765625 26.2578125 C-43.48003723 25.4126004 -43.19444946 24.56738831 -42.90020752 23.69656372 C-35.67341733 2.5290504 -35.67341733 2.5290504 -27.1875 -2.5625 C-17.35894994 -6.40845437 -9.1812579 -4.67724459 0 0 Z " fill="#B3D334" transform="translate(1151.3125,468.6875)"/>
<path d="M0 0 C4.52733991 4.07052724 7.33974593 8.52866424 10.3125 13.8125 C10.79323975 14.65925293 11.27397949 15.50600586 11.76928711 16.37841797 C13.19508481 18.9106879 14.60247856 21.45202991 16 24 C16.37060547 24.67498535 16.74121094 25.3499707 17.12304688 26.04541016 C47.54152118 82.25536436 54.4536204 150.77611328 36.75 212.125 C25.60500931 249.24107847 7.62253316 284.18165087 -19.40234375 312.28515625 C-21.52969665 314.50847996 -23.52947549 316.76511884 -25.5 319.125 C-42.00773533 338.09895121 -64.64340264 353.19262838 -86.625 364.9375 C-87.82419067 365.58440796 -87.82419067 365.58440796 -89.04760742 366.24438477 C-89.7872876 366.62651123 -90.52696777 367.0086377 -91.2890625 367.40234375 C-92.25900146 367.90495728 -92.25900146 367.90495728 -93.24853516 368.41772461 C-95 369 -95 369 -98 368 C-98.5775 367.21625 -99.155 366.4325 -99.75 365.625 C-103.10054891 361.71602628 -106.61451726 360.22483054 -111.65771484 359.74951172 C-115.75074009 359.62991255 -119.83716826 359.61767127 -123.93164062 359.6484375 C-131.12394571 359.5392564 -137.12239303 358.3981094 -143 354 C-144.27270508 351.83056641 -144.27270508 351.83056641 -145 350 C-142.31057946 347.85196373 -139.79961765 346.34536407 -136.61328125 345.0546875 C-135.34266846 344.53007935 -135.34266846 344.53007935 -134.04638672 343.99487305 C-132.69311279 343.44053589 -132.69311279 343.44053589 -131.3125 342.875 C-105.90816204 332.18842507 -82.64536958 317.87138303 -62.3515625 299.1640625 C-60.78280519 297.72038883 -59.19393114 296.29827663 -57.5859375 294.8984375 C-37.647489 277.49185547 -22.14772941 255.82608527 -9 233 C-8.34257813 231.8759375 -7.68515625 230.751875 -7.0078125 229.59375 C2.1990614 213.17667366 8.97591674 195.11773655 14 177 C14.51626953 175.19402344 14.51626953 175.19402344 15.04296875 173.3515625 C20.64425242 152.53453123 23.2245038 131.08479411 23.1875 109.5625 C23.18656342 108.85591248 23.18562683 108.14932495 23.18466187 107.42132568 C23.08349958 72.08429271 15.90904423 37.761795 1.46875 5.4375 C0 2 0 2 0 0 Z " fill="#D5DA1A" transform="translate(728,465)"/>
<path d="M0 0 C4.13140195 2.78558837 7.34427762 6.5282248 10.71826172 10.16137695 C17.96864739 17.71101115 24.69258895 22.86834767 34.09326172 27.41137695 C35.77024997 28.39396953 37.44077353 29.38811717 39.09326172 30.41137695 C33.15384817 37.17001996 25.24452082 41.34927028 17.3190918 45.39794922 C5.2553797 51.58557667 -2.41610545 59.33617814 -6.78173828 72.47387695 C-9.05268576 81.19050771 -8.43857885 88.49086281 -3.90673828 96.41137695 C-0.60717774 100.49470408 3.90537427 102.91723461 8.33349609 105.62402344 C19.98155576 112.8074965 19.98155576 112.8074965 22.09326172 119.41137695 C23.69872646 126.2442349 21.09416843 131.62762736 17.87841797 137.6105957 C15.84003298 140.80867456 13.64293314 143.31483521 10.80419922 145.8137207 C8.96033184 147.44156737 8.96033184 147.44156737 7.28857422 149.8215332 C4.73821854 152.83022682 1.90256857 154.84022142 -1.40673828 156.91137695 C-2.0182373 157.29938477 -2.62973633 157.68739258 -3.25976562 158.0871582 C-11.00599664 162.87624701 -19.84789769 167.6290243 -29.15673828 167.47387695 C-31.01298828 167.44293945 -31.01298828 167.44293945 -32.90673828 167.41137695 C-33.59033203 165.1496582 -33.59033203 165.1496582 -33.90673828 162.41137695 C-32.75439453 160.4543457 -32.75439453 160.4543457 -30.96923828 158.59887695 C-30.32083984 157.90793945 -29.67244141 157.21700195 -29.00439453 156.50512695 C-27.65277011 155.15601952 -26.28649252 153.82135759 -24.90283203 152.50512695 C-19.65306789 147.49165356 -14.95668818 142.06957267 -11.90673828 135.41137695 C-12.30478957 131.85676997 -13.75371594 130.22652281 -16.29345703 127.80200195 C-16.98503906 127.12911133 -17.67662109 126.4562207 -18.38916016 125.76293945 C-19.48067383 124.72266602 -19.48067383 124.72266602 -20.59423828 123.66137695 C-25.9336523 118.55030912 -30.60198845 113.41959759 -34.90673828 107.41137695 C-36.78862496 105.02950562 -38.68309653 102.65893185 -40.58642578 100.29418945 C-41.90673828 98.41137695 -41.90673828 98.41137695 -41.90673828 96.41137695 C-42.47779297 96.1484082 -43.04884766 95.88543945 -43.63720703 95.61450195 C-47.77095965 93.42311502 -51.27558837 90.33972366 -54.90673828 87.41137695 C-55.84453125 86.66307617 -55.84453125 86.66307617 -56.80126953 85.8996582 C-76.51073974 69.66047846 -95.49650126 41.35362906 -98.32080078 15.6418457 C-98.51438701 7.80160358 -98.51438701 7.80160358 -96.87548828 4.05200195 C-94.34486915 1.94315267 -92.35816942 1.94975291 -89.13232422 2.11450195 C-85.30273764 2.62533755 -81.71358957 3.77268392 -78.03173828 4.91137695 C-62.86276778 9.22276233 -48.28902503 8.79390662 -33.66455078 2.65356445 C-22.40838462 -2.05949042 -11.65717712 -6.22058998 0 0 Z " fill="#FEF9F7" transform="translate(439.90673828125,717.588623046875)"/>
<path d="M0 0 C4.13467099 1.32072281 8.08736959 2.84285456 12.0546875 4.6015625 C13.16328125 5.09140625 14.271875 5.58125 15.4140625 6.0859375 C16.55617188 6.59382812 17.69828125 7.10171875 18.875 7.625 C20.0403125 8.140625 21.205625 8.65625 22.40625 9.1875 C25.27191765 10.45591027 28.13645045 11.72681693 31 13 C30.99476318 14.05276123 30.98952637 15.10552246 30.98413086 16.19018555 C30.96580358 20.15811283 30.95446843 24.12603651 30.94506836 28.09399414 C30.94009069 29.79972974 30.93330614 31.5054612 30.92456055 33.21118164 C30.87469393 43.19917239 31.00481209 53.05148678 32 63 C31.34 63 30.68 63 30 63 C38.71478257 90.52885402 48.47239962 113.50304797 68 135 C68.77730469 135.86109375 69.55460937 136.7221875 70.35546875 137.609375 C89.21310522 157.44621873 115.24557925 171.4917369 142 177 C142 177.66 142 178.32 142 179 C142.66 179 143.32 179 144 179 C144 179.66 144 180.32 144 181 C129.73260286 181.49605821 116.73765704 181.01795929 103 177 C102.03489502 176.72712158 102.03489502 176.72712158 101.05029297 176.44873047 C63.45647098 165.62612002 32.3823535 139.2299289 13.55786133 105.24047852 C2.94181331 85.399376 -3.30409745 63.57144793 -4 41 C-4.03996094 40.07960937 -4.07992188 39.15921875 -4.12109375 38.2109375 C-4.4191755 25.48109355 -2.84513039 12.39663957 0 0 Z " fill="#D3D824" transform="translate(433,133)"/>
<path d="M0 0 C0.14695312 0.99966797 0.14695312 0.99966797 0.296875 2.01953125 C2.49805038 15.75844851 2.49805038 15.75844851 10 27 C17.32813483 31.71158497 23.53588577 32.66513721 32.125 32.5625 C40.28220028 32.49630549 47.35383228 32.56903396 53.55493164 38.48291016 C59.2177068 44.95265327 58.61943236 52.51450061 58.21777344 60.640625 C56.78816431 76.12912565 48.83360432 92.07075172 38.1875 103.234375 C35.03520575 105.77872679 32.99848994 106.17014851 29 106 C28.61501651 99.94007465 29.20694025 94.49964759 30.5 88.5625 C32.64934332 78.40941157 33.60089302 69.32553534 27.8984375 60.24609375 C25.0202284 56.39300737 22.56869668 55.15270415 18 54 C15.02452807 53.72131708 12.06520583 53.69930416 9.078125 53.69140625 C7.31119525 53.66620199 5.54426824 53.64080476 3.77734375 53.61523438 C1.03337651 53.58681836 -1.71054176 53.56277426 -4.45458984 53.54370117 C-18.84921548 53.42446661 -33.31402955 52.93620894 -47 48 C-45.98187311 34.56072502 -39.8980477 21.26174463 -30 12 C-29.05125 11.0925 -28.1025 10.185 -27.125 9.25 C-19.57894422 3.81683984 -9.38005101 0 0 0 Z " fill="#FDF5EB" transform="translate(575,791)"/>
<path d="M0 0 C9.45690141 6.37070423 9.45690141 6.37070423 11 11 C13.01508358 11.73323796 13.01508358 11.73323796 15 12 C14.34 12.33 13.68 12.66 13 13 C13.5775 13.721875 14.155 14.44375 14.75 15.1875 C20.89016395 24.55125002 21.58684634 35.12704148 21 46 C20.34 46 19.68 46 19 46 C18.6596875 45.29875 18.319375 44.5975 17.96875 43.875 C11.63292549 31.47296053 3.88727631 25.02945458 -9.1953125 20.1875 C-19.31276351 17.23828351 -30.26170742 18.87428914 -39.703125 23.25390625 C-51.44911136 29.86552741 -58.58861104 39.28687669 -62.375 52.25 C-62.58125 53.1575 -62.7875 54.065 -63 55 C-67.39882039 50.60117961 -67.13775638 43.46777873 -67.1875 37.5625 C-67.15394567 32.30789133 -67.15394567 32.30789133 -66 30 C-66.66 29.67 -67.32 29.34 -68 29 C-67.34 29 -66.68 29 -66 29 C-65.79375 27.88625 -65.5875 26.7725 -65.375 25.625 C-62.73108246 15.28637074 -55.43654565 6.0351433 -46.4453125 0.3984375 C-32.08606787 -7.0648781 -14.34130674 -8.11186227 0 0 Z " fill="#DBC734" transform="translate(520,532)"/>
<path d="M0 0 C-1.42309717 4.61453992 -4.03793295 7.4683031 -7.4375 10.75 C-7.97681152 11.27730713 -8.51612305 11.80461426 -9.07177734 12.34790039 C-22.18055795 25.00538251 -37.35896329 36.15034025 -53.22949219 45.109375 C-55.88276879 46.62382278 -57.91884195 47.90476352 -59.9140625 50.24609375 C-62.54521618 52.45843083 -64.49790913 52.41448458 -67.86328125 52.23486328 C-71.29970924 51.85713891 -74.64339113 51.24418236 -78 50.4375 C-78.72405029 50.26549072 -79.44810059 50.09348145 -80.1940918 49.91625977 C-89.09046388 47.65773508 -100.10559159 44.26922276 -107 38 C-107 37.34 -107 36.68 -107 36 C-107.70125 35.9175 -108.4025 35.835 -109.125 35.75 C-112.65272947 34.82972275 -115.06111614 33.11873023 -118 31 C-115.06186215 26.65155598 -112.09106641 24.23939819 -107 23 C-100.52176462 22.1116801 -95.04218188 23.18408651 -88.8125 25 C-81.7668626 26.99345909 -74.99499252 27.41495123 -67.6875 27.4375 C-66.20310425 27.45200195 -66.20310425 27.45200195 -64.6887207 27.46679688 C-43.06289158 27.22147927 -24.07392809 15.47374927 -6.96679688 3.38525391 C-2.16038068 0 -2.16038068 0 0 0 Z " fill="#FEF6EA" transform="translate(645,717)"/>
<path d="M0 0 C1.15628906 -0.04253906 1.15628906 -0.04253906 2.3359375 -0.0859375 C5.53327483 0.55789493 6.60003814 1.84945583 8.625 4.375 C9.06945801 7.09561157 9.06945801 7.09561157 8.97070312 10.32275391 C8.93404541 11.57276184 8.8973877 12.82276978 8.85961914 14.11065674 C8.43055689 22.48965867 7.77726078 30.84951989 7.09375 39.2109375 C6.93632663 41.18629184 6.77939342 43.16168529 6.6229248 45.13711548 C6.21350757 50.28958373 5.79751581 55.44149992 5.38006592 60.59332275 C4.95376561 65.86918437 4.53380501 71.14555037 4.11328125 76.421875 C3.28999348 86.74008141 2.4597464 97.05771472 1.625 107.375 C-0.025 107.375 -1.675 107.375 -3.375 107.375 C-4.70986613 86.86311627 -5.78951965 66.3348292 -6.79525852 45.80443287 C-6.97705522 42.09400638 -7.16258427 38.38386147 -7.35757446 34.67410278 C-7.54428214 31.1162392 -7.71968999 27.55798636 -7.88690376 23.99915504 C-7.98211485 22.03109338 -8.08856998 20.06358587 -8.19529724 18.09611511 C-8.24912064 16.90391861 -8.30294403 15.71172211 -8.35839844 14.48339844 C-8.41010193 13.44455505 -8.46180542 12.40571167 -8.51507568 11.33538818 C-8.21733515 5.04287877 -6.85144495 0.11381138 0 0 Z " fill="#B3D334" transform="translate(1660.375,487.625)"/>
<path d="M0 0 C8.77859849 5.13160721 15.35211619 12.46718952 18.125 22.2421875 C19.20398117 33.53385086 18.11320791 42.6435757 10.875 51.5546875 C6.06398786 56.65477333 1.09427983 60.09671763 -5.875 61.2421875 C-5.13443359 59.99501953 -5.13443359 59.99501953 -4.37890625 58.72265625 C-3.73824219 57.63597656 -3.09757813 56.54929687 -2.4375 55.4296875 C-1.79941406 54.35074219 -1.16132812 53.27179687 -0.50390625 52.16015625 C3.08511743 45.730898 3.09586882 38.42447123 2.125 31.2421875 C-0.36745185 23.21299758 -4.75517423 16.78874291 -11.875 12.2421875 C-14.54277519 10.93740291 -17.00589486 10.10291904 -19.875 9.2421875 C-20.473125 9.05527344 -21.07125 8.86835937 -21.6875 8.67578125 C-24.68904458 8.08083223 -27.5685145 8.14912264 -30.625 8.1796875 C-32.38070313 8.19322266 -32.38070313 8.19322266 -34.171875 8.20703125 C-35.06390625 8.21863281 -35.9559375 8.23023438 -36.875 8.2421875 C-28.63603152 -3.02720616 -12.65071093 -5.03153276 0 0 Z " fill="#DBC734" transform="translate(516.875,625.7578125)"/>
<path d="M0 0 C1.01513672 0.6496875 1.01513672 0.6496875 2.05078125 1.3125 C2.82035156 1.786875 3.58992188 2.26125 4.3828125 2.75 C11.6464618 7.7610748 15.8907847 14.42394311 17.92578125 23 C17.96703125 24.093125 18.00828125 25.18625 18.05078125 26.3125 C18.13328125 27.570625 18.21578125 28.82875 18.30078125 30.125 C18.09867952 40.57365928 13.30587322 48.08112831 6.17578125 55.3125 C5.47453125 55.9725 4.77328125 56.6325 4.05078125 57.3125 C3.06078125 56.8175 3.06078125 56.8175 2.05078125 56.3125 C2.48390625 55.58160156 2.48390625 55.58160156 2.92578125 54.8359375 C6.99190194 47.07077646 7.32303319 39.02173058 5.42578125 30.5078125 C2.44506037 21.96485356 -3.21572525 15.41184559 -11.26171875 11.3125 C-20.84101321 6.98151601 -30.32120882 7.25741233 -40.21875 10.65625 C-40.78980469 10.8728125 -41.36085937 11.089375 -41.94921875 11.3125 C-38.27325927 4.59987835 -32.83829196 0.65293086 -25.6171875 -1.8359375 C-17.24449565 -3.77975733 -7.72921411 -4.19211613 0 0 Z " fill="#FEFEFC" transform="translate(281.94921875,532.6875)"/>
<path d="M0 0 C4.2736101 0.30007228 7.66998244 1.58245157 11.63671875 3.1171875 C30.83621618 10.11549704 49.53212069 9.77136322 69.32885742 5.02124023 C74.86823178 3.69509748 79.74515781 2.87162206 85.44921875 3.2421875 C86.44921875 4.2421875 86.44921875 4.2421875 86.51171875 6.8046875 C86.49109375 7.6090625 86.47046875 8.4134375 86.44921875 9.2421875 C80.0456048 12.38421173 73.78660243 14.36951176 66.82421875 15.8671875 C65.86217529 16.07883545 64.90013184 16.2904834 63.90893555 16.50854492 C41.70421387 21.27795379 19.42851118 23.15070575 -0.80078125 10.8671875 C-3.55078125 8.2421875 -3.55078125 8.2421875 -4.05078125 4.4921875 C-3.4094782 0.32371769 -3.4094782 0.32371769 0 0 Z " fill="#FEE600" transform="translate(1555.55078125,374.7578125)"/>
<path d="M0 0 C1 1 1 1 1.25 3.9375 C1.1675 4.948125 1.085 5.95875 1 7 C-2.2587574 9.17250493 -3.99031056 9.40383702 -7.8125 9.875 C-14.50167229 10.93754 -18.4841992 12.94427383 -22.8125 18.1875 C-31.7471895 30.86824422 -37.48530319 45.43577168 -43.08959961 59.79614258 C-45.57953838 65.82367739 -45.57953838 65.82367739 -47.9375 66.8125 C-50 67 -50 67 -53 66 C-55.03489094 61.18953114 -52.83619759 56.17014261 -51.5625 51.375 C-51.29171631 50.3526123 -51.02093262 49.33022461 -50.74194336 48.27685547 C-46.25749143 32.05402543 -40.11713315 15.07555638 -25 6 C-16.87605963 1.77977124 -9.27506969 -2.04051533 0 0 Z " fill="#FEE600" transform="translate(794,135)"/>
<path d="M0 0 C2.1503784 0.72995425 4.28428608 1.49707328 6.41796875 2.27441406 C19.0617384 6.6530059 31.69930335 8.59041394 45.00537109 9.66601562 C57.22667813 10.70812344 57.22667813 10.70812344 59.91796875 13.39941406 C59.95889812 15.73238839 59.96038598 18.06646631 59.91796875 20.39941406 C47.03224467 27.59144611 28.69661068 22.381074 15.20727539 18.65405273 C-7.37541064 12.08431249 -7.37541064 12.08431249 -13.08203125 5.39941406 C-13.08203125 2.14941406 -13.08203125 2.14941406 -12.08203125 -0.60058594 C-8.38441536 -2.44939388 -3.8534377 -1.11156857 0 0 Z " fill="#FEE600" transform="translate(1154.08203125,371.6005859375)"/>
<path d="M0 0 C0 3.3 0 6.6 0 10 C-0.78503906 10.3403125 -1.57007813 10.680625 -2.37890625 11.03125 C-10.79383635 14.91347542 -16.9892912 19.08475146 -20.9375 27.6875 C-23.90724456 37.13499989 -22.38032414 46.33712681 -18 55 C-24.88371737 53.48894009 -28.64724836 49.36951868 -32.5546875 43.7734375 C-36.89122288 36.25187613 -37.34828418 28.62313812 -35.3359375 20.23046875 C-32.43861623 12.02978985 -27.59974989 6.08580724 -19.875 2.0625 C-13.54846261 -0.91885548 -6.78504426 -2.26168142 0 0 Z " fill="#D6C231" transform="translate(700,571)"/>
<path d="M0 0 C7.17563169 4.17791714 11.99390138 10.15150423 14.5625 18 C16.36778274 25.35999886 15.17325071 32.55752366 11.4375 39.125 C10.81875 40.07375 10.2 41.0225 9.5625 42 C9.2325 42 8.9025 42 8.5625 42 C8.48773438 41.24976563 8.41296875 40.49953125 8.3359375 39.7265625 C7.25951199 31.34732862 5.07736204 24.31194689 -1.17578125 18.33984375 C-7.94550685 13.19124978 -15.0860613 12.05915642 -23.4375 13 C-29.52083433 14.78354493 -34.45035219 18.180057 -39.4375 22 C-39.04257729 15.8128776 -37.24851397 10.94353228 -33.4375 6 C-23.98340297 -2.04968406 -11.75589862 -5.35506425 0 0 Z " fill="#DBC734" transform="translate(380.4375,545)"/>
<path d="M0 0 C6.64971655 3.95388551 10.65151876 8.92789461 13.734375 16.03125 C13.734375 16.69125 13.734375 17.35125 13.734375 18.03125 C11.14629163 16.77676418 8.80704646 15.44737648 6.359375 13.90625 C-0.28777883 10.6198773 -8.22728836 10.77428429 -15.21484375 12.94921875 C-22.13883679 16.14729625 -26.80969569 20.53512105 -29.70703125 27.75390625 C-31.00671562 33.05261947 -31.04713543 38.59914715 -31.265625 44.03125 C-37.01175489 39.95273658 -38.53962455 35.69398292 -40.265625 29.03125 C-41.50750492 21.33159448 -38.91558146 14.06878906 -34.578125 7.78125 C-26.45787638 -2.3893614 -11.90217644 -5.4933122 0 0 Z " fill="#DBC733" transform="translate(381.265625,602.96875)"/>
<path d="M0 0 C0.71542969 0.12117187 1.43085937 0.24234375 2.16796875 0.3671875 C3.66263672 0.61855469 3.66263672 0.61855469 5.1875 0.875 C6.15042969 1.03742187 7.11335937 1.19984375 8.10546875 1.3671875 C9.39066406 1.57601562 10.67585937 1.78484375 12 2 C13.28233521 2.2470166 13.28233521 2.2470166 14.59057617 2.49902344 C25.91791052 4.52016271 37.27602286 4.4020621 48.74438477 4.53173828 C51.46387822 4.56554447 54.18302774 4.61058183 56.90234375 4.65625 C57.72741928 4.6615271 58.55249481 4.6668042 59.40257263 4.67224121 C63.98178057 4.7511517 67.68776397 5.26454041 72 7 C71 9 71 9 67.73828125 10.1484375 C66.26641219 10.56933712 64.79076724 10.97715458 63.3125 11.375 C62.51158936 11.59196533 61.71067871 11.80893066 60.88549805 12.0324707 C41.86317554 17.02238164 21.71894479 20.3943789 2 20 C-0.46254726 13.38190423 -0.18935472 6.99560484 0 0 Z " fill="#AFCE35" transform="translate(527,839)"/>
<path d="M0 0 C4.62830507 1.84934412 5.9662346 4.63334936 8.01171875 9.015625 C10.29905517 15.92283853 10.07849296 23.20389419 7.3125 29.9375 C2.6178884 38.82314894 -3.63395923 42.87798641 -13 46 C-21.36047703 46.74647116 -29.2801476 44.478736 -35.9375 39.25 C-39.3104111 36.07167992 -41.42574506 32.34142355 -43 28 C-43 27.34 -43 26.68 -43 26 C-40.97745069 27.00900213 -38.95923679 28.02135587 -36.95703125 29.0703125 C-29.86017167 32.56057131 -24.06310968 33.03029168 -16.4375 30.9375 C-9.85945798 28.46498421 -4.7707357 24.11808849 -1.5 17.875 C0.77866654 12.1083746 0.33907478 6.09392731 0 0 Z " fill="#DBC733" transform="translate(604,676)"/>
<path d="M0 0 C2.75954012 1.29473904 5.09121861 2.72370832 7.4765625 4.6171875 C8.13865723 5.13611572 8.80075195 5.65504395 9.48291016 6.18969727 C10.1897998 6.74584717 10.89668945 7.30199707 11.625 7.875 C17.80964983 12.67427208 24.10425148 17.23028705 30.625 21.5625 C31.35799316 22.05024902 32.09098633 22.53799805 32.84619141 23.04052734 C40.19792529 28.20869741 40.19792529 28.20869741 48.375 31.5625 C48.91125 31.706875 49.4475 31.85125 50 32 C50.33 32.99 50.66 33.98 51 35 C52.32258472 35.68774405 53.6583584 36.35021539 55 37 C56.65971443 38.4186998 58.28226224 39.88149823 59.875 41.375 C62.58466415 43.87866629 64.95572782 45.97343669 68.125 47.875 C72.01676863 50.75152464 74.34480137 54.34597721 77.09765625 58.29296875 C79.24847643 61.35358144 81.55505851 64.1730364 84 67 C83.01 67.495 83.01 67.495 82 68 C80.06738281 67.1706543 80.06738281 67.1706543 77.703125 65.82421875 C76.83341064 65.33083008 75.96369629 64.83744141 75.06762695 64.32910156 C74.13781006 63.78737305 73.20799316 63.24564453 72.25 62.6875 C71.3014917 62.13932617 70.3529834 61.59115234 69.37573242 61.02636719 C61.56226106 56.45023661 54.18414451 51.5031486 47 46 C46.14792969 45.34773437 45.29585938 44.69546875 44.41796875 44.0234375 C41.91031129 42.05458205 39.44986768 40.04033756 37 38 C36.47438477 37.56461914 35.94876953 37.12923828 35.40722656 36.68066406 C22.31737942 25.80108204 9.50549669 14.25824504 0 0 Z " fill="#ACCA33" transform="translate(327,764)"/>
<path d="M0 0 C6.35730237 3.63865111 10.28423017 9.09302813 12.5625 16 C13.49438608 24.88317377 12.55307475 31.35650824 7 38.4375 C5.7934375 39.7059375 5.7934375 39.7059375 4.5625 41 C3.9025 41 3.2425 41 2.5625 41 C2.70171875 39.83597656 2.70171875 39.83597656 2.84375 38.6484375 C3.51496483 28.60418696 0.86712561 21.65342719 -5.4375 14 C-10.40238358 10.40145238 -16.19224455 9.33501575 -22.26171875 9.59375 C-25.4454941 10.18820716 -28.02468206 11.50526956 -30.80859375 13.125 C-32.4375 14 -32.4375 14 -34.4375 14 C-32.13288146 6.87663361 -27.64540869 2.28146569 -21.08984375 -1.078125 C-14.06577087 -3.5194817 -6.75647204 -2.99157045 0 0 Z " fill="#DAC633" transform="translate(610.4375,575)"/>
<path d="M0 0 C1.2773813 3.8321439 0.27127136 5.22734218 -1 9 C-2.0179944 18.67094684 -0.40339178 26.96983277 3 36 C3.33257812 36.92683594 3.66515625 37.85367188 4.0078125 38.80859375 C4.79511449 41.16020164 4.79511449 41.16020164 7 42 C4.62794139 42.98684881 2.25276513 43.9645755 -0.125 44.9375 C-0.79015625 45.21529297 -1.4553125 45.49308594 -2.140625 45.77929688 C-6.08853349 47.38555376 -9.73530369 48.4752165 -14 49 C-16.14708155 44.64595813 -16.34933655 40.57862391 -16.3125 35.8125 C-16.30686035 35.05509521 -16.3012207 34.29769043 -16.29541016 33.51733398 C-16.03582097 21.50041058 -11.65002325 11.45179465 -3.125 2.875 C-2.09335881 1.90588252 -1.05549797 0.94307807 0 0 Z " fill="#DBC735" transform="translate(410,675)"/>
<path d="M0 0 C3.15885407 1.6260178 4.79818764 3.41696776 7.0234375 6.17578125 C8.08691406 7.45388672 8.08691406 7.45388672 9.171875 8.7578125 C10.6484375 11.36328125 10.6484375 11.36328125 10.671875 13.8515625 C9.31384415 17.18443974 7.42773728 19.18653207 4.8984375 21.73828125 C4.03734375 22.63289062 3.17625 23.5275 2.2890625 24.44921875 C-0.3515625 26.36328125 -0.3515625 26.36328125 -2.875 26.48046875 C-6.23330151 24.96552517 -7.90490183 22.96017007 -10.2265625 20.11328125 C-11.02835938 19.159375 -11.83015625 18.20546875 -12.65625 17.22265625 C-14.3515625 14.36328125 -14.3515625 14.36328125 -14.38671875 11.80078125 C-13.06964247 8.69943936 -11.3480926 6.93437235 -8.9140625 4.61328125 C-8.11097656 3.8346875 -7.30789063 3.05609375 -6.48046875 2.25390625 C-3.02132576 -0.81806661 -3.02132576 -0.81806661 0 0 Z " fill="#B3D334" transform="translate(1661.3515625,600.63671875)"/>
<path d="M0 0 C5.46060342 2.04025861 10.05983096 5.03637659 14.9375 8.1875 C15.81857422 8.73986328 16.69964844 9.29222656 17.60742188 9.86132812 C24.15233749 14.08243101 31.01299009 19.05196037 33 27 C33.25 30.6875 33.25 30.6875 33 34 C32.34 34.66 31.68 35.32 31 36 C28.11646861 33.17524237 25.24482336 30.33867799 22.375 27.5 C21.56675781 26.70851563 20.75851562 25.91703125 19.92578125 25.1015625 C15.12690867 20.34170514 10.9143238 15.50265652 7 10 C5.11758187 7.58619815 3.22145104 5.18421203 1.3203125 2.78515625 C0 1 0 1 0 0 Z " fill="#E3E3E3" transform="translate(398,815)"/>
<path d="M0 0 C0.33 0.99 0.66 1.98 1 3 C-0.328125 5.59375 -0.328125 5.59375 -2.25 8.5 C-2.87390625 9.4590625 -3.4978125 10.418125 -4.140625 11.40625 C-5.6507875 13.51286323 -7.09543991 15.26003152 -9 17 C-13.59306496 15.5140084 -16.43569245 13.14985318 -20 10 C-17.66078421 7.66078421 -15.93341643 7.16674038 -12.8125 6.125 C-8.16677521 4.49899632 -4.17205288 2.59594401 0 0 Z " fill="#DBC735" transform="translate(477,725)"/>
<path d="M0 0 C3.125 0.25 3.125 0.25 5 1.4375 C6.53159584 3.90507108 6.55322025 5.39519831 6.125 8.25 C4.9375 10.0625 4.9375 10.0625 3.125 11.25 C0.625 11.75 0.625 11.75 -1.875 11.25 C-3.75 9.0625 -3.75 9.0625 -4.875 6.25 C-4.34113546 0.37749004 -4.34113546 0.37749004 0 0 Z " fill="#FEE600" transform="translate(1127.875,356.75)"/>
<path d="M0 0 C0.70125 0.00515625 1.4025 0.0103125 2.125 0.015625 C2.82625 0.01046875 3.5275 0.0053125 4.25 0 C6.125 0.265625 6.125 0.265625 8.125 2.265625 C7.9375 4.765625 7.9375 4.765625 7.125 7.265625 C3.67254176 9.56726382 2.17761287 9.61052822 -1.875 9.265625 C-3.875 7.265625 -3.875 7.265625 -4.125 4.765625 C-3.82110076 1.72663263 -3.14762524 0.44591358 0 0 Z " fill="#FEE600" transform="translate(1651.875,372.734375)"/>
<path d="M0 0 C2.33294775 -0.04241723 4.66702567 -0.04092937 7 0 C8 1 8 1 8.0625 4.5625 C8.041875 5.696875 8.02125 6.83125 8 8 C5.1875 9.125 5.1875 9.125 2 10 C1.01 9.34 0.02 8.68 -1 8 C-1.25660094 4.92078868 -1.39431504 2.78863007 0 0 Z " fill="#FEE600" transform="translate(802,132)"/>
<path d="M0 0 C-0.33 0.66 -0.66 1.32 -1 2 C-3.02488628 2.28926947 -5.05244016 2.57272154 -7.08984375 2.75390625 C-9.08252033 2.90406878 -9.08252033 2.90406878 -11 4 C-11 3.34 -11 2.68 -11 2 C-15.95 2 -20.9 2 -26 2 C-26 1.67 -26 1.34 -26 1 C-17.31238511 0.34344611 -8.71782637 -0.16311941 0 0 Z " fill="#76A246" transform="translate(588,313)"/>
<path d="M0 0 C0.66 0.33 1.32 0.66 2 1 C0.68 4.3 -0.64 7.6 -2 11 C-2.66 10.34 -3.32 9.68 -4 9 C-4.99 9.495 -4.99 9.495 -6 10 C-4.34832443 6.4213696 -2.21713508 3.25179812 0 0 Z " fill="#7CAF59" transform="translate(663,159)"/>
</svg>
