<?xml version="1.0" encoding="UTF-8"?>
<svg version="1.1" xmlns="http://www.w3.org/2000/svg" width="1920" height="1080">
<path d="M0 0 C1 3 1 3 -0.265625 5.546875 C-0.92046875 6.60390625 -1.5753125 7.6609375 -2.25 8.75 C-11.88202082 24.9185784 -19.40372635 42.04968828 -25 60 C-25.26651367 60.84240234 -25.53302734 61.68480469 -25.80761719 62.55273438 C-28.86382202 72.32226731 -31.3911145 82.1187591 -33.25 92.1875 C-33.47659302 93.41315674 -33.47659302 93.41315674 -33.70776367 94.66357422 C-36.35058037 109.95405008 -37.38037538 125.12337865 -37.3125 140.625 C-37.31067719 141.49640625 -37.30885437 142.3678125 -37.30697632 143.265625 C-37.25750425 157.37435049 -36.48576132 171.08828221 -34 185 C-33.84966309 185.91894043 -33.69932617 186.83788086 -33.54443359 187.78466797 C-25.65438472 235.37895034 -3.30174087 282.95260336 30 318 C73.73375125 365.83379043 95.21192958 430.63400742 93 495 C90.16836936 552.87081696 68.17125741 611.09872632 27.6796875 653.203125 C25.28669455 655.70076779 23.00836735 658.25634837 20.75 660.875 C17.11806567 664.97485225 13.19146647 668.48572624 9 672 C8.07703125 672.81082031 7.1540625 673.62164063 6.203125 674.45703125 C-10.13299806 688.73845964 -28.3842518 700.70959329 -48 710 C-47.94199219 711.24652344 -47.88398437 712.49304688 -47.82421875 713.77734375 C-47.16693963 734.0507976 -52.4288008 752.1011364 -65.5625 767.875 C-68.25586958 770.69929727 -70.15164474 772.52575605 -74.0625 773.125 C-75.031875 773.08375 -76.00125 773.0425 -77 773 C-77.4021912 766.80327636 -76.74160618 761.06912488 -75.5 755 C-73.68153862 745.91932956 -72.32305468 737.42897234 -77 729 C-78.30485178 727.31094186 -79.63388423 725.63990343 -81 724 C-82.28003906 724.34611328 -82.28003906 724.34611328 -83.5859375 724.69921875 C-103.44604631 729.87922651 -123.34419781 733.54941268 -143.84716797 734.78222656 C-145.97974091 734.99795066 -147.93740215 735.42676309 -150 736 C-149.65066406 736.54269531 -149.30132813 737.08539062 -148.94140625 737.64453125 C-148.48636719 738.35996094 -148.03132813 739.07539062 -147.5625 739.8125 C-147.11003906 740.52019531 -146.65757812 741.22789062 -146.19140625 741.95703125 C-145 744 -145 744 -144 747 C-142.21441892 748.08911376 -142.21441892 748.08911376 -140 749 C-139.20207031 749.42796875 -138.40414063 749.8559375 -137.58203125 750.296875 C-131.61733772 753.42644622 -125.68532341 755.87805529 -119.3125 758 C-110.36003236 761.02824374 -102.62688329 764.32459384 -98 773 C-94.7880145 782.63595649 -96.56232588 794.11144441 -101 803 C-111.0925498 822.99312174 -128.64012905 843.91280567 -149.890625 852.4609375 C-153.65196872 853.42216978 -157.14016486 853.2450689 -161 853 C-161.40195688 847.32235902 -160.46227796 844.26259507 -157.5 839.4375 C-156.76552116 838.21099968 -156.03114927 836.9844353 -155.296875 835.7578125 C-154.91724609 835.13680664 -154.53761719 834.51580078 -154.14648438 833.87597656 C-142.46930206 815.46065457 -142.46930206 815.46065457 -140.44140625 794.36328125 C-142.20521088 787.62050813 -145.14136776 782.91076997 -150.96875 779.015625 C-159.70419569 774.64790216 -168.53921674 771.37845859 -177.8125 768.3125 C-188.08186056 764.90788919 -197.88331986 761.02608472 -207.625 756.3125 C-208.7075708 755.79018799 -209.7901416 755.26787598 -210.90551758 754.72973633 C-217.17286509 751.62169839 -222.94107546 748.18071691 -228.63818359 744.11401367 C-230.92378421 742.7067564 -230.92378421 742.7067564 -233.13305664 743.68945312 C-234.0571936 744.33817383 -234.0571936 744.33817383 -235 745 C-235.93972656 745.65613281 -236.87945313 746.31226563 -237.84765625 746.98828125 C-238.90855469 747.75527344 -239.96945312 748.52226563 -241.0625 749.3125 C-251.11028329 756.41249745 -261.49632336 761.4387255 -274 761 C-274.68359375 758.73828125 -274.68359375 758.73828125 -275 756 C-273.84765625 754.04296875 -273.84765625 754.04296875 -272.0625 752.1875 C-271.41539062 751.49914062 -270.76828125 750.81078125 -270.1015625 750.1015625 C-268.06691734 748.06691734 -266.00376516 746.0649423 -263.9375 744.0625 C-258.88151185 739.06553116 -253.68303504 733.33197575 -253 726 C-254.11853293 723.92726273 -254.11853293 723.92726273 -255.98828125 722.14453125 C-256.66584473 721.44465088 -257.3434082 720.74477051 -258.04150391 720.02368164 C-259.16564697 718.92914673 -259.16564697 718.92914673 -260.3125 717.8125 C-261.07997559 717.05509521 -261.84745117 716.29769043 -262.63818359 715.51733398 C-269.69272783 708.82017224 -277.23974772 704.49097585 -285.85400391 700.13720703 C-311.05197714 686.78428788 -334.54436367 665.28574236 -352 643 C-352.85610993 641.95541935 -353.71427179 640.91251786 -354.57421875 639.87109375 C-379.28029562 609.66290679 -396.7169334 571.97902594 -403.625 533.5625 C-405.55517542 523.05245947 -410.30627166 516.37563604 -418.8125 510 C-423.60731967 506.8649256 -428.6104372 505.4135153 -434.05053711 503.81762695 C-451.01902455 498.80063143 -462.29527377 488.62497253 -470.8125 473.1875 C-478.16018423 457.49920124 -477.27043527 441.02608843 -472 425 C-466.39026527 410.9666443 -454.83171731 399.65849584 -441.0390625 393.7265625 C-426.26291764 388.14094206 -408.59925461 387.56032879 -394 394 C-379.11114931 400.74588677 -369.46204243 411.38247109 -363 426.3046875 C-361.56841824 430.16324771 -360.72989398 433.95240611 -360 438 C-358.94941406 437.44570313 -357.89882813 436.89140625 -356.81640625 436.3203125 C-344.04195806 429.6933106 -344.04195806 429.6933106 -339.0625 428.9375 C-334.44609854 428.22389596 -331.66777169 425.70468595 -328.23828125 422.65625 C-321.74964587 417.8548863 -313.70293137 418.193188 -306 419 C-298.5398619 421.17040554 -293.34413068 425.65368619 -289 432 C-287.20041056 435.53712407 -286.07013647 438.71444437 -285.125 442.5625 C-283.80948059 446.58214263 -282.47852825 449.54896842 -279 452 C-274.88250677 453.03770218 -270.79421313 453.20505168 -266.5625 453.375 C-265.44294922 453.44332031 -264.32339844 453.51164062 -263.16992188 453.58203125 C-260.11264386 453.75984327 -257.06097616 453.90660991 -254 454 C-252.42484619 454.08278198 -252.42484619 454.08278198 -250.81787109 454.16723633 C-246.6001564 453.91692143 -244.72788249 451.28987215 -242.0625 448.3125 C-241.01798716 447.20616442 -239.96984023 446.10324781 -238.91796875 445.00390625 C-238.16845947 444.21717529 -238.16845947 444.21717529 -237.40380859 443.41455078 C-234.83416642 440.82524526 -232.10747855 438.89150868 -229 437 C-228.34 437 -227.68 437 -227 437 C-226.89300781 436.12472656 -226.78601563 435.24945312 -226.67578125 434.34765625 C-224.6926791 424.52384967 -218.11152151 416.17566332 -210.1484375 410.41796875 C-198.75550324 402.89863214 -187.3772738 401.71666049 -174 403 C-164.90205414 404.98584605 -157.65802505 409.55537319 -151 416 C-150.67 416.66 -150.34 417.32 -150 418 C-148.23912199 418.63440065 -148.23912199 418.63440065 -146.08984375 419.04296875 C-145.27241699 419.22593506 -144.45499023 419.40890137 -143.61279297 419.59741211 C-142.72994629 419.79214111 -141.84709961 419.98687012 -140.9375 420.1875 C-122.96794819 424.41874932 -105.19734206 432.3391424 -92.25 445.875 C-88.61438261 448.25213445 -87.00327286 448.31118649 -82.75 448.5 C-75.32851654 448.83003176 -69.45135858 450.51276451 -64.12109375 455.8984375 C-58.34720758 463.16101239 -57.43099688 469.90918275 -58 479 C-58.31945444 480.66938245 -58.65087633 482.33656934 -59 484 C-58.1843457 483.98952637 -57.36869141 483.97905273 -56.52832031 483.96826172 C-53.44190557 483.93375468 -50.35559059 483.90889765 -47.26904297 483.89013672 C-45.30038843 483.87537776 -43.3318231 483.84993839 -41.36328125 483.82421875 C-33.35969111 483.78359139 -25.84095434 484.37425748 -18 486 C-17.97421875 484.96101563 -17.9484375 483.92203125 -17.921875 482.8515625 C-17.51684587 471.53249341 -16.12754343 462.3443027 -8.0625 453.7578125 C-0.99402165 447.73354118 6.86585186 445.65531516 16 446 C16.66 446.33 17.32 446.66 18 447 C15.21350871 388.9013303 -4.91913879 335.38361491 -47.40625 294.71875 C-60.73795361 281.90934986 -71.0115112 267.10834818 -80 251 C-80.42490723 250.24976563 -80.84981445 249.49953125 -81.28759766 248.7265625 C-104 208.31989924 -104 208.31989924 -104 191 C-104.86238281 191.03480469 -105.72476562 191.06960938 -106.61328125 191.10546875 C-143.01274345 191.91263739 -178.76655285 176.88413443 -205.203125 152.11328125 C-234.22940867 124.21985619 -250.60065515 88.26398383 -252.18359375 47.953125 C-252.40260684 34.91540464 -251.27844529 21.64543182 -248 9 C-243.92701838 10.25615321 -240.1413594 11.81046733 -236.29370117 13.61401367 C-174.11850226 42.59830937 -103.51488267 42.53425773 -39.65771484 19.39111328 C-25.92750892 14.16919943 -12.37870641 7.95386179 0 0 Z M-217 73 C-214.3474569 101.39203536 -197.31090377 126.98688155 -178 147 C-177.33484375 147.71671875 -176.6696875 148.4334375 -175.984375 149.171875 C-159.67626237 166.30224541 -134.42268866 181.62533441 -111 186 C-109.33376117 186.03776179 -107.66601955 186.04643957 -106 186 C-106.82365088 177.79780996 -108.15329139 169.71367583 -109.5390625 161.58984375 C-111.56172706 149.34819478 -112.17166965 137.27162446 -112.125 124.875 C-112.12306641 123.62050049 -112.12113281 122.36600098 -112.11914062 121.07348633 C-112.07279892 111.02441541 -111.69902919 101.02357933 -111 91 C-111.61593018 90.98541748 -112.23186035 90.97083496 -112.86645508 90.95581055 C-145.57300419 90.10406182 -176.47521993 85.74723426 -207.65283203 75.74072266 C-210.75199187 74.76268532 -213.86944318 73.87174628 -217 73 Z M-103 189 C-103 189.33 -103 189.66 -103 190 C-101.02 190 -99.04 190 -97 190 C-97 189.67 -97 189.34 -97 189 C-98.98 189 -100.96 189 -103 189 Z " fill="#FDE500" transform="translate(1088,144)"/>
<path d="M0 0 C1 3 1 3 -0.265625 5.546875 C-0.92046875 6.60390625 -1.5753125 7.6609375 -2.25 8.75 C-11.88202082 24.9185784 -19.40372635 42.04968828 -25 60 C-25.39977051 61.26360352 -25.39977051 61.26360352 -25.80761719 62.55273438 C-28.86382202 72.32226731 -31.3911145 82.1187591 -33.25 92.1875 C-33.47659302 93.41315674 -33.47659302 93.41315674 -33.70776367 94.66357422 C-36.35058037 109.95405008 -37.38037538 125.12337865 -37.3125 140.625 C-37.31067719 141.49640625 -37.30885437 142.3678125 -37.30697632 143.265625 C-37.25750425 157.37435049 -36.48576132 171.08828221 -34 185 C-33.84966309 185.91894043 -33.69932617 186.83788086 -33.54443359 187.78466797 C-25.65438472 235.37895034 -3.30174087 282.95260336 30 318 C73.73375125 365.83379043 95.21192958 430.63400742 93 495 C90.16836936 552.87081696 68.17125741 611.09872632 27.6796875 653.203125 C25.28669455 655.70076779 23.00836735 658.25634837 20.75 660.875 C17.11806567 664.97485225 13.19146647 668.48572624 9 672 C8.07703125 672.81082031 7.1540625 673.62164063 6.203125 674.45703125 C-9.56729981 688.24391274 -27.2047252 700.19328517 -46.21484375 709.0625 C-48.17972262 709.98154873 -48.17972262 709.98154873 -50 712 C-50.556875 710.63875 -50.556875 710.63875 -51.125 709.25 C-53.7687985 704.66741593 -57.03618557 702.65460481 -62 701 C-63.72869369 700.90869015 -65.46032632 700.86841065 -67.19140625 700.859375 C-68.21943359 700.84003906 -69.24746094 700.82070313 -70.30664062 700.80078125 C-72.44968667 700.76735642 -74.59302306 700.74873166 -76.73632812 700.74609375 C-84.83322229 700.55486816 -91.85101138 698.94679619 -97.87866211 693.21289062 C-104.44073946 685.70113753 -106.78710747 674.79188612 -106.375 665.04296875 C-105.07085099 654.46034292 -101.77108032 647.29735166 -94 640 C-90.57458806 637.44213193 -86.9853714 635.24512424 -83.3125 633.0625 C-74.76518699 627.79994789 -66.74732907 622.38437303 -59 616 C-58.17532227 615.32541748 -58.17532227 615.32541748 -57.33398438 614.63720703 C-44.95529384 605.71851792 -44.95529384 605.71851792 -37.0625 593.625 C-35.92075499 589.72963466 -34.86241662 588.51368207 -32.125 585.625 C-21.41707571 574.26289384 -13.14643613 560.82160773 -6 547 C-5.6277832 546.28682617 -5.25556641 545.57365234 -4.87207031 544.83886719 C4.99437538 525.70317755 12.65227407 504.38132601 15.625 483 C15.74979736 482.12770752 15.87459473 481.25541504 16.00317383 480.35668945 C23.82530613 424.68822965 9.78246166 366.74192066 -23.71899414 321.50463867 C-30.94304821 311.94179311 -38.74661705 303.00697657 -47.40625 294.71875 C-60.73795361 281.90934986 -71.0115112 267.10834818 -80 251 C-80.42490723 250.24976563 -80.84981445 249.49953125 -81.28759766 248.7265625 C-104 208.31989924 -104 208.31989924 -104 191 C-104.86238281 191.03480469 -105.72476563 191.06960938 -106.61328125 191.10546875 C-143.01274345 191.91263739 -178.76655285 176.88413443 -205.203125 152.11328125 C-234.22940867 124.21985619 -250.60065515 88.26398383 -252.18359375 47.953125 C-252.40260684 34.91540464 -251.27844529 21.64543182 -248 9 C-243.92701838 10.25615321 -240.1413594 11.81046733 -236.29370117 13.61401367 C-174.11850226 42.59830937 -103.51488267 42.53425773 -39.65771484 19.39111328 C-25.92750892 14.16919943 -12.37870641 7.95386179 0 0 Z M-217 73 C-214.3474569 101.39203536 -197.31090377 126.98688155 -178 147 C-177.33484375 147.71671875 -176.6696875 148.4334375 -175.984375 149.171875 C-159.67626237 166.30224541 -134.42268866 181.62533441 -111 186 C-109.33376117 186.03776179 -107.66601955 186.04643957 -106 186 C-106.82365088 177.79780996 -108.15329139 169.71367583 -109.5390625 161.58984375 C-111.56172706 149.34819478 -112.17166965 137.27162446 -112.125 124.875 C-112.12306641 123.62050049 -112.12113281 122.36600098 -112.11914062 121.07348633 C-112.07279892 111.02441541 -111.69902919 101.02357933 -111 91 C-111.61593018 90.98541748 -112.23186035 90.97083496 -112.86645508 90.95581055 C-145.57300419 90.10406182 -176.47521993 85.74723426 -207.65283203 75.74072266 C-210.75199187 74.76268532 -213.86944318 73.87174628 -217 73 Z M-103 189 C-103 189.33 -103 189.66 -103 190 C-101.02 190 -99.04 190 -97 190 C-97 189.67 -97 189.34 -97 189 C-98.98 189 -100.96 189 -103 189 Z " fill="#87C86D" transform="translate(1088,144)"/>
<path d="M0 0 C5.15378909 2.77102081 8.78994237 7.01066051 12.73046875 11.25390625 C19.93739467 18.75856484 26.66766295 24.11179718 36.10546875 28.50390625 C36.853125 28.89835938 37.60078125 29.2928125 38.37109375 29.69921875 C40.07161945 30.65691735 40.07161945 30.65691735 41.98046875 30.37890625 C44.31638943 29.50446616 44.31638943 29.50446616 46.91796875 27.56640625 C52.58858589 23.8971834 58.33185816 23.13774321 64.98046875 23.19140625 C65.68083252 23.19487061 66.38119629 23.19833496 67.1027832 23.2019043 C73.89173548 23.34420891 79.2008192 24.58947814 84.85546875 28.31640625 C87.07394 29.80721532 87.07394 29.80721532 89.60546875 28.87890625 C91.31497107 27.93867998 93.00220746 26.95711435 94.66796875 25.94140625 C99.80222576 22.91351109 105.28752107 22.93103928 111.10546875 23.50390625 C113.48956639 24.13726862 115.86395148 24.80772705 118.23046875 25.50390625 C139.71962594 31.50557139 160.90711011 27.24975497 180.04980469 16.67626953 C187.5747647 12.3847187 194.96018337 7.83060295 201.9453125 2.703125 C205.10546875 0.50390625 205.10546875 0.50390625 207.10546875 0.50390625 C205.68841364 5.03518713 203.19176767 7.8847762 199.85546875 11.12890625 C199.32679199 11.64888184 198.79811523 12.16885742 198.25341797 12.70458984 C192.2650659 18.47950955 185.78142509 23.55452211 179.10546875 28.50390625 C178.54102051 28.92381836 177.97657227 29.34373047 177.39501953 29.77636719 C171.93360731 33.81450228 166.40623207 37.70986767 160.65625 41.328125 C159.89997314 41.80572266 159.14369629 42.28332031 158.36450195 42.77539062 C156.9051133 43.69017007 155.43916755 44.5946078 153.96557617 45.48632812 C145.53163387 50.75565657 141.41574532 56.49553649 138.80078125 66.109375 C136.51966241 77.24584842 138.25215594 88.69606922 144.23046875 98.50390625 C148.23127602 103.21083178 153.96952821 106.04428828 160.04052734 106.93408203 C163.11154336 107.07306232 166.15661034 107.10313789 169.23046875 107.06640625 C176.70966445 107.00571365 182.81473659 107.06564157 189.10546875 111.50390625 C194.73909373 117.4340378 195.55761231 122.53044889 195.53710938 130.45654297 C195.08917059 147.71302337 187.15405432 165.30061513 175.29296875 177.73828125 C172.1406745 180.28263304 170.10395869 180.67405476 166.10546875 180.50390625 C165.70327755 174.30718261 166.36386257 168.57303113 167.60546875 162.50390625 C169.42393013 153.42323581 170.78241407 144.93287859 166.10546875 136.50390625 C164.80061697 134.81484811 163.47158452 133.14380968 162.10546875 131.50390625 C161.25210937 131.73464844 160.39875 131.96539063 159.51953125 132.203125 C139.65942244 137.38313276 119.76127094 141.05331893 99.25830078 142.28613281 C97.12572784 142.50185691 95.1680666 142.93066934 93.10546875 143.50390625 C93.45480469 144.04660156 93.80414062 144.58929687 94.1640625 145.1484375 C94.61910156 145.86386719 95.07414063 146.57929687 95.54296875 147.31640625 C95.99542969 148.02410156 96.44789063 148.73179687 96.9140625 149.4609375 C98.10546875 151.50390625 98.10546875 151.50390625 99.10546875 154.50390625 C100.89104983 155.59302001 100.89104983 155.59302001 103.10546875 156.50390625 C103.90339844 156.931875 104.70132813 157.35984375 105.5234375 157.80078125 C111.48813103 160.93035247 117.42014534 163.38196154 123.79296875 165.50390625 C132.74543639 168.53214999 140.47858546 171.82850009 145.10546875 180.50390625 C148.31745425 190.13986274 146.54314287 201.61535066 142.10546875 210.50390625 C132.01291895 230.49702799 114.4653397 251.41671192 93.21484375 259.96484375 C89.45350003 260.92607603 85.96530389 260.74897515 82.10546875 260.50390625 C81.70351187 254.82626527 82.64319079 251.76650132 85.60546875 246.94140625 C86.33994759 245.71490593 87.07431948 244.48834155 87.80859375 243.26171875 C88.18822266 242.64071289 88.56785156 242.01970703 88.95898438 241.37988281 C100.63616669 222.96456082 100.63616669 222.96456082 102.6640625 201.8671875 C100.90025787 195.12441438 97.96410099 190.41467622 92.13671875 186.51953125 C83.40127306 182.15180841 74.56625201 178.88236484 65.29296875 175.81640625 C55.02360819 172.41179544 45.22214889 168.52999097 35.48046875 163.81640625 C34.39789795 163.29409424 33.31532715 162.77178223 32.19995117 162.23364258 C25.93260366 159.12560464 20.16439329 155.68462316 14.46728516 151.61791992 C12.18168454 150.21066265 12.18168454 150.21066265 9.97241211 151.19335938 C9.3563208 151.62583984 8.74022949 152.05832031 8.10546875 152.50390625 C7.16574219 153.16003906 6.22601562 153.81617188 5.2578125 154.4921875 C3.66646484 155.64267578 3.66646484 155.64267578 2.04296875 156.81640625 C-8.00481454 163.9164037 -18.39085461 168.94263175 -30.89453125 168.50390625 C-31.578125 166.2421875 -31.578125 166.2421875 -31.89453125 163.50390625 C-30.7421875 161.546875 -30.7421875 161.546875 -28.95703125 159.69140625 C-28.30992187 159.00304687 -27.6628125 158.3146875 -26.99609375 157.60546875 C-24.96144859 155.57082359 -22.89829641 153.56884855 -20.83203125 151.56640625 C-15.79871172 146.59184142 -10.52826693 140.81936057 -9.89453125 133.50390625 C-11.14963108 131.47033891 -11.14963108 131.47033891 -13.1640625 129.75390625 C-13.88384277 129.0690918 -14.60362305 128.38427734 -15.34521484 127.67871094 C-16.12461426 126.96102539 -16.90401367 126.24333984 -17.70703125 125.50390625 C-25.47010188 118.07305717 -33.122266 110.45116142 -38.30078125 100.9140625 C-40.30112075 97.88903929 -42.5630981 96.28077179 -45.51953125 94.19140625 C-55.0913652 87.23769513 -62.6148809 79.83364363 -69.89453125 70.50390625 C-70.71050781 69.50359375 -71.52648437 68.50328125 -72.3671875 67.47265625 C-82.95373015 54.36911953 -89.81595001 40.51957494 -94.89453125 24.50390625 C-95.22453125 23.51390625 -95.55453125 22.52390625 -95.89453125 21.50390625 C-96.04044691 19.19451037 -96.11539609 16.88022384 -96.14453125 14.56640625 C-96.1703125 13.34050781 -96.19609375 12.11460937 -96.22265625 10.8515625 C-95.89453125 7.50390625 -95.89453125 7.50390625 -94.87890625 5.0625 C-92.33198513 3.06206392 -90.29722411 3.04477134 -87.12011719 3.20703125 C-83.29053061 3.71786684 -79.70138253 4.86521322 -76.01953125 6.00390625 C-61.12441584 10.23745544 -46.20032436 10.16250068 -31.91015625 3.74609375 C-21.53404704 -0.90469425 -11.22510612 -4.88443807 0 0 Z " fill="#E8E6E6" transform="translate(844.89453125,736.49609375)"/>
<path d="M0 0 C1 3 1 3 -0.3359375 5.72265625 C-1.00882813 6.82480469 -1.68171875 7.92695313 -2.375 9.0625 C-5.84965649 14.87815926 -8.9966681 20.802627 -12 26.875 C-12.39751465 27.6781665 -12.7950293 28.48133301 -13.20458984 29.30883789 C-14.13964456 31.20429146 -15.07032045 33.10190425 -16 35 C-16.66 35 -17.32 35 -18 35 C-18.28053223 35.59047119 -18.56106445 36.18094238 -18.85009766 36.78930664 C-19.90520366 38.81775352 -21.0344916 40.54237047 -22.3984375 42.37109375 C-28.26247401 50.3739431 -33.64887749 58.49992725 -38.5625 67.125 C-39.06249512 68.0008374 -39.56249023 68.8766748 -40.07763672 69.77905273 C-42.68948826 74.4327266 -44.98513177 79.06032304 -47 84 C-47.44859375 84.99257812 -47.8971875 85.98515625 -48.359375 87.0078125 C-51.52415226 94.10189185 -54.22057589 101.26240312 -56.6875 108.625 C-56.97270508 109.47078613 -57.25791016 110.31657227 -57.55175781 111.18798828 C-61.03995858 121.79334253 -63.41308821 132.47528809 -65.125 143.5 C-65.29386719 144.53769531 -65.46273437 145.57539063 -65.63671875 146.64453125 C-71.77474393 185.45424954 -69.30373169 231.79060009 -52.01538086 267.79541016 C-50.99539101 270.01000702 -50.12094339 272.2450052 -49.25390625 274.5234375 C-46.88941131 280.47429257 -43.98788483 286.09224778 -41 291.75 C-40.21882813 293.25240234 -40.21882813 293.25240234 -39.421875 294.78515625 C-36.83911954 299.70934912 -34.21264442 304.45905067 -31 309 C-31.33 309.66 -31.66 310.32 -32 311 C-33.05574219 309.83597656 -33.05574219 309.83597656 -34.1328125 308.6484375 C-35.12946925 307.55661655 -36.12693462 306.46553343 -37.125 305.375 C-37.93046265 304.4936438 -37.93046265 304.4936438 -38.75219727 303.59448242 C-41.5789402 300.52861924 -44.44207937 297.53409469 -47.45703125 294.65234375 C-60.79235195 281.89869597 -71.03114034 267.07317064 -80 251 C-80.42490723 250.24976563 -80.84981445 249.49953125 -81.28759766 248.7265625 C-104 208.31989924 -104 208.31989924 -104 191 C-104.86238281 191.03480469 -105.72476563 191.06960938 -106.61328125 191.10546875 C-143.01274345 191.91263739 -178.76655285 176.88413443 -205.203125 152.11328125 C-234.22940867 124.21985619 -250.60065515 88.26398383 -252.18359375 47.953125 C-252.40260684 34.91540464 -251.27844529 21.64543182 -248 9 C-243.92701838 10.25615321 -240.1413594 11.81046733 -236.29370117 13.61401367 C-174.11850226 42.59830937 -103.51488267 42.53425773 -39.65771484 19.39111328 C-25.92750892 14.16919943 -12.37870641 7.95386179 0 0 Z M-217 73 C-214.3474569 101.39203536 -197.31090377 126.98688155 -178 147 C-177.33484375 147.71671875 -176.6696875 148.4334375 -175.984375 149.171875 C-159.67626237 166.30224541 -134.42268866 181.62533441 -111 186 C-109.33376117 186.03776179 -107.66601955 186.04643957 -106 186 C-106.82365088 177.79780996 -108.15329139 169.71367583 -109.5390625 161.58984375 C-111.56172706 149.34819478 -112.17166965 137.27162446 -112.125 124.875 C-112.12306641 123.62050049 -112.12113281 122.36600098 -112.11914062 121.07348633 C-112.07279892 111.02441541 -111.69902919 101.02357933 -111 91 C-111.61593018 90.98541748 -112.23186035 90.97083496 -112.86645508 90.95581055 C-145.57300419 90.10406182 -176.47521993 85.74723426 -207.65283203 75.74072266 C-210.75199187 74.76268532 -213.86944318 73.87174628 -217 73 Z M-103 189 C-103 189.33 -103 189.66 -103 190 C-101.02 190 -99.04 190 -97 190 C-97 189.67 -97 189.34 -97 189 C-98.98 189 -100.96 189 -103 189 Z " fill="#B4D131" transform="translate(1088,144)"/>
<path d="M0 0 C10.17489699 7.56594905 16.37460354 17.3271813 21 29 C21.34417969 29.81210937 21.68835938 30.62421875 22.04296875 31.4609375 C24.72306036 38.6936738 23.49569292 44.59201306 22 52 C21.45705888 55.03799926 20.94490536 58.08088358 20.4375 61.125 C20.30738525 61.90496338 20.17727051 62.68492676 20.04321289 63.48852539 C13.07751663 105.82542622 22.25520881 151.86775491 47.19189453 187.10986328 C48.48855008 188.89801918 49.8042353 190.6700421 51.12890625 192.4375 C53 195 53 195 53 196 C51.2984375 196.433125 51.2984375 196.433125 49.5625 196.875 C48.386875 197.24625 47.21125 197.6175 46 198 C42.60721457 204.78557086 44.82843275 214.51780275 47 221.375 C53.44145868 239.43417365 63.73719294 254.36904091 76 269 C76.67546875 269.86238281 77.3509375 270.72476562 78.046875 271.61328125 C81.83388126 276.2410029 86.49239048 279.8949222 91.26953125 283.4609375 C91.84324463 283.89124268 92.41695801 284.32154785 93.00805664 284.76489258 C94.14237408 285.60986766 95.28323688 286.44614872 96.43139648 287.2722168 C100.23182616 290.09626285 102.52141442 292.99811703 105 297 C106.39557906 298.80814075 107.81148298 300.60082901 109.25 302.375 C109.95640625 303.24898437 110.6628125 304.12296875 111.390625 305.0234375 C111.92171875 305.67570312 112.4528125 306.32796875 113 307 C112.34 307.33 111.68 307.66 111 308 C108.51971122 306.81031771 106.18707208 305.56453495 103.8125 304.1875 C103.09924561 303.77878662 102.38599121 303.37007324 101.65112305 302.94897461 C74.90362598 287.42321338 50.11020711 267.39814533 31 243 C30.14389007 241.95541935 29.28572821 240.91251786 28.42578125 239.87109375 C3.71970438 209.66290679 -13.7169334 171.97902594 -20.625 133.5625 C-22.55517542 123.05245947 -27.30627166 116.37563604 -35.8125 110 C-40.60731967 106.8649256 -45.6104372 105.4135153 -51.05053711 103.81762695 C-68.01902455 98.80063143 -79.29527377 88.62497253 -87.8125 73.1875 C-95.16018423 57.49920124 -94.27043527 41.02608843 -89 25 C-83.39026527 10.9666443 -71.83171731 -0.34150416 -58.0390625 -6.2734375 C-38.62128279 -13.61367058 -17.37058896 -11.43916834 0 0 Z " fill="#E9DF12" transform="translate(705,544)"/>
<path d="M0 0 C4.52744428 4.07062107 7.33936856 8.52876008 10.3125 13.8125 C10.79178955 14.65562744 11.2710791 15.49875488 11.76489258 16.36743164 C45.23548138 75.75578388 54.88197766 144.10805759 37.1875 210.1875 C26.64931202 247.85507211 7.91486661 283.88313538 -19.3203125 312.203125 C-21.71330545 314.70076779 -23.99163265 317.25634837 -26.25 319.875 C-29.88193433 323.97485225 -33.80853353 327.48572624 -38 331 C-38.92296875 331.81082031 -39.8459375 332.62164063 -40.796875 333.45703125 C-56.56729981 347.24391274 -74.2047252 359.19328517 -93.21484375 368.0625 C-95.17972262 368.98154873 -95.17972262 368.98154873 -97 371 C-97.37125 370.0925 -97.7425 369.185 -98.125 368.25 C-100.7687985 363.66741593 -104.03618557 361.65460481 -109 360 C-110.72869369 359.90869015 -112.46032632 359.86841065 -114.19140625 359.859375 C-115.21943359 359.84003906 -116.24746094 359.82070313 -117.30664062 359.80078125 C-119.44968667 359.76735642 -121.59302306 359.74873166 -123.73632812 359.74609375 C-131.05766296 359.57318466 -136.95157495 358.31607054 -143 354 C-144.77563477 351.83105469 -144.77563477 351.83105469 -146 350 C-140.44536147 347.09112351 -134.79602014 344.45397213 -129.05566406 341.93701172 C-103.92728596 330.88033331 -80.59538982 316.34080516 -60.59375 297.44140625 C-58.44672243 295.42048422 -56.2627663 293.51218419 -54 291.625 C-6.57043313 250.16080133 18.47904626 184.46962088 23 123 C25.2987649 81.65343673 17.08329188 41.75806705 0.73095703 3.92919922 C0 2 0 2 0 0 Z " fill="#D5DA1A" transform="translate(1135,485)"/>
<path d="M0 0 C5.15379569 2.77102436 8.78992361 7.01067344 12.73046875 11.25390625 C19.98085443 18.80354045 26.70479598 23.96087697 36.10546875 28.50390625 C37.782457 29.48649883 39.45298057 30.48064647 41.10546875 31.50390625 C37.27219054 35.65600644 33.23141623 38.57056952 28.41796875 41.50390625 C27.70898438 41.94395996 27 42.38401367 26.26953125 42.83740234 C22.46646423 45.16929203 18.66754229 47.27159735 14.60546875 49.12890625 C4.12946535 54.23529987 -0.5091553 63.18238372 -4.89453125 73.50390625 C-6.93794524 79.88363481 -6.797539 87.09995509 -4.33203125 93.31640625 C-0.96578102 99.85225292 4.18649075 102.95948416 10.34570312 106.71875 C22.0152485 113.90186912 22.0152485 113.90186912 24.10546875 120.50390625 C25.38397845 126.56580571 23.85508511 131.44034652 20.8984375 136.765625 C10.79700868 152.1928616 -2.1834747 161.62369968 -19.58203125 167.81640625 C-23.49065956 168.62763099 -26.91042726 168.64369937 -30.89453125 168.50390625 C-31.578125 166.2421875 -31.578125 166.2421875 -31.89453125 163.50390625 C-30.7421875 161.546875 -30.7421875 161.546875 -28.95703125 159.69140625 C-28.30992187 159.00304687 -27.6628125 158.3146875 -26.99609375 157.60546875 C-24.96144859 155.57082359 -22.89829641 153.56884855 -20.83203125 151.56640625 C-15.79871172 146.59184142 -10.52826693 140.81936057 -9.89453125 133.50390625 C-11.14963108 131.47033891 -11.14963108 131.47033891 -13.1640625 129.75390625 C-13.88384277 129.0690918 -14.60362305 128.38427734 -15.34521484 127.67871094 C-16.12461426 126.96102539 -16.90401367 126.24333984 -17.70703125 125.50390625 C-25.47010188 118.07305717 -33.122266 110.45116142 -38.30078125 100.9140625 C-40.30112075 97.88903929 -42.5630981 96.28077179 -45.51953125 94.19140625 C-55.0913652 87.23769513 -62.6148809 79.83364363 -69.89453125 70.50390625 C-70.71050781 69.50359375 -71.52648437 68.50328125 -72.3671875 67.47265625 C-82.95373015 54.36911953 -89.81595001 40.51957494 -94.89453125 24.50390625 C-95.22453125 23.51390625 -95.55453125 22.52390625 -95.89453125 21.50390625 C-96.04044691 19.19451037 -96.11539609 16.88022384 -96.14453125 14.56640625 C-96.1703125 13.34050781 -96.19609375 12.11460937 -96.22265625 10.8515625 C-95.89453125 7.50390625 -95.89453125 7.50390625 -94.87890625 5.0625 C-92.33198513 3.06206392 -90.29722411 3.04477134 -87.12011719 3.20703125 C-83.29053061 3.71786684 -79.70138253 4.86521322 -76.01953125 6.00390625 C-61.12441584 10.23745544 -46.20032436 10.16250068 -31.91015625 3.74609375 C-21.53404704 -0.90469425 -11.22510612 -4.88443807 0 0 Z " fill="#FEF9F7" transform="translate(844.89453125,736.49609375)"/>
<path d="M0 0 C5.17152682 1.59696748 10.01589086 3.711544 14.9375 5.9375 C16.48808475 6.63455186 18.03886342 7.33117253 19.58984375 8.02734375 C20.26909912 8.33406006 20.94835449 8.64077637 21.64819336 8.95678711 C24.75308826 10.33405441 27.87617629 11.66621928 31 13 C30.99476318 14.08829102 30.98952637 15.17658203 30.98413086 16.29785156 C30.96583563 20.39061641 30.95447968 24.48337776 30.94506836 28.57617188 C30.94008358 30.3372458 30.93329334 32.09831568 30.92456055 33.859375 C30.87740421 43.62351145 30.90981486 53.28051396 32 63 C31.34 63 30.68 63 30 63 C38.93584596 91.86192048 49.81414304 116.02338011 71 138 C71.59167969 138.64324219 72.18335938 139.28648437 72.79296875 139.94921875 C90.8320616 159.05729488 116.69882274 171.2514515 142 177 C142.33 178.32 142.66 179.64 143 181 C129.05859587 181.51038652 116.42589868 180.89587952 103 177 C102.03271973 176.72712158 102.03271973 176.72712158 101.04589844 176.44873047 C84.57929114 171.70705945 69.82823078 164.02546731 56 154 C55.1440625 153.38898438 54.288125 152.77796875 53.40625 152.1484375 C22.69638988 128.91131001 2.92978272 94.24469766 -2.74609375 56.3046875 C-5.22103385 37.65325289 -4.73722122 18.27213898 0 0 Z " fill="#D3D824" transform="translate(840,153)"/>
<path d="M0 0 C0.15855469 0.96679688 0.31710937 1.93359375 0.48046875 2.9296875 C2.61112613 16.23134486 2.61112613 16.23134486 10.21875 26.90625 C15.22303907 30.35076066 19.13917167 32.10274992 25.26171875 32.17578125 C26.81729492 32.21155273 26.81729492 32.21155273 28.40429688 32.24804688 C30.57337486 32.29062842 32.742703 32.32208694 34.91210938 32.34179688 C42.80111086 32.55132564 48.71049178 33.53735977 54.375 39.5 C59.43096612 47.27840941 59.13609242 56.21188522 57.62939453 65.21435547 C54.51091083 79.54769837 47.64759002 95.59873091 36 105 C33.36600075 106.026485 31.86423695 106.12188242 29 106 C28.5978088 99.80327636 29.25839382 94.06912488 30.5 88 C32.50409848 77.99233195 33.63224233 69.16326133 27.86328125 60.2421875 C25.24274355 56.8197818 23.08214757 55.20246913 19 54 C15.97366825 53.71023778 12.96043919 53.69915155 9.921875 53.69140625 C8.1015599 53.66620294 6.28124747 53.64080569 4.4609375 53.61523438 C1.62468473 53.58679406 -1.21152023 53.56275855 -4.04785156 53.54370117 C-18.87720653 53.42486784 -32.73284436 52.24584843 -47 48 C-45.89821405 33.40133619 -39.11243587 20.04185933 -28.484375 10.08984375 C-21.27683113 4.02689411 -9.49797466 0 0 0 Z " fill="#FDF5EB" transform="translate(982,811)"/>
<path d="M0 0 C11.26654809 6.46668993 11.26654809 6.46668993 13.8515625 11.63671875 C15.86826077 12.77022409 15.86826077 12.77022409 17.8515625 13.63671875 C17.1915625 13.96671875 16.5315625 14.29671875 15.8515625 14.63671875 C16.4290625 15.35859375 17.0065625 16.08046875 17.6015625 16.82421875 C23.74172645 26.18796877 24.43840884 36.76376023 23.8515625 47.63671875 C23.1915625 47.63671875 22.5315625 47.63671875 21.8515625 47.63671875 C21.51125 46.93546875 21.1709375 46.23421875 20.8203125 45.51171875 C14.48448799 33.10967928 6.73883881 26.66617333 -6.34375 21.82421875 C-16.46037255 18.87524375 -27.57274283 20.45404595 -36.95703125 24.99609375 C-41.63207391 27.69136351 -45.57938736 30.5428083 -49.1484375 34.63671875 C-49.8290625 35.39984375 -50.5096875 36.16296875 -51.2109375 36.94921875 C-55.55399188 42.97345547 -57.99093281 49.57579432 -60.1484375 56.63671875 C-64.40481542 52.38034083 -64.28255561 45.50408537 -64.3359375 39.76171875 C-64.31381285 36.65541777 -64.13930127 34.60931005 -63.1484375 31.63671875 C-63.8084375 31.30671875 -64.4684375 30.97671875 -65.1484375 30.63671875 C-64.4884375 30.63671875 -63.8284375 30.63671875 -63.1484375 30.63671875 C-63.04144531 29.76144531 -62.93445313 28.88617187 -62.82421875 27.984375 C-60.8411166 18.16056842 -54.25995901 9.81238207 -46.296875 4.0546875 C-32.64787479 -4.95365264 -15.07448054 -6.79714949 0 0 Z " fill="#DBC734" transform="translate(924.1484375,550.36328125)"/>
<path d="M0 0 C-1.41705511 4.53128088 -3.91370108 7.38086995 -7.25 10.625 C-7.77867676 11.14497559 -8.30735352 11.66495117 -8.85205078 12.20068359 C-14.84040285 17.9756033 -21.32404366 23.05061586 -28 28 C-28.56444824 28.41991211 -29.12889648 28.83982422 -29.71044922 29.27246094 C-37.39775752 34.95641011 -45.31559269 40.23723452 -53.40356445 45.33398438 C-54.08894287 45.76904297 -54.77432129 46.20410156 -55.48046875 46.65234375 C-56.08785889 47.03382568 -56.69524902 47.41530762 -57.32104492 47.80834961 C-59.06843206 48.95968903 -59.06843206 48.95968903 -60.48950195 50.62890625 C-62.72898788 52.66170938 -64.92959717 52.31541013 -67.828125 52.19970703 C-71.28471946 51.8818682 -74.63160846 51.24701405 -78 50.4375 C-78.72405029 50.26549072 -79.44810059 50.09348145 -80.1940918 49.91625977 C-89.09046388 47.65773508 -100.10559159 44.26922276 -107 38 C-107 37.34 -107 36.68 -107 36 C-107.70125 35.9175 -108.4025 35.835 -109.125 35.75 C-112.6903452 34.81990995 -115.09015572 33.23313631 -118 31 C-118 30.34 -118 29.68 -118 29 C-116.390625 27.74609375 -116.390625 27.74609375 -114.25 26.4375 C-113.55390625 26.00308594 -112.8578125 25.56867187 -112.140625 25.12109375 C-104.64866031 21.19738232 -96.64329899 22.71473117 -88.875 25 C-67.38584281 31.00166514 -46.19835864 26.74584872 -27.05566406 16.17236328 C-19.53070405 11.88081245 -12.14528538 7.3266967 -5.16015625 2.19921875 C-2 0 -2 0 0 0 Z " fill="#FEF6EA" transform="translate(1052,737)"/>
<path d="M0 0 C7.68989003 5.82740552 13.33611074 11.60923072 16 21 C17.07260336 32.22491893 15.98348815 41.32657871 8.875 50.25 C4.95889918 54.41191668 0.28654236 57.79111254 -5 60 C-5.99 59.67 -6.98 59.34 -8 59 C-7.59007812 58.41992188 -7.18015625 57.83984375 -6.7578125 57.2421875 C-6.21898437 56.46101562 -5.68015625 55.67984375 -5.125 54.875 C-4.59132813 54.10929688 -4.05765625 53.34359375 -3.5078125 52.5546875 C0.69064541 45.44123809 0.9590427 38.05767128 0 30 C-2.80762709 21.19519887 -7.78013947 14.45690595 -15.890625 9.94921875 C-21.50327967 7.37471845 -26.70364854 6.87579443 -32.8125 6.9375 C-33.97394531 6.94652344 -35.13539063 6.95554687 -36.33203125 6.96484375 C-37.21246094 6.97644531 -38.09289062 6.98804688 -39 7 C-36.5952157 3.75783546 -34.68613617 1.44907839 -31 -0.25 C-30.34 -0.56453125 -29.68 -0.8790625 -29 -1.203125 C-20.3516833 -4.64893869 -8.18187374 -4.70494729 0 0 Z " fill="#DBC734" transform="translate(926,647)"/>
<path d="M0 0 C0.65484375 0.4125 1.3096875 0.825 1.984375 1.25 C2.68046875 1.6625 3.3765625 2.075 4.09375 2.5 C10.88718446 6.994904 14.42689992 13.28551799 17.359375 20.75 C18.98444046 29.85036657 18.12526156 37.88058907 13.984375 46.25 C11.30876953 49.93982416 8.49425044 53.32833573 4.984375 56.25 C3.994375 56.25 3.004375 56.25 1.984375 56.25 C2.273125 55.67894531 2.561875 55.10789062 2.859375 54.51953125 C6.82283232 45.86323036 7.64900441 37.09830955 4.484375 28 C0.84517294 20.10434606 -5.05286873 13.74243696 -13.015625 10.25 C-23.26479115 6.98461189 -31.88488294 8.06875763 -42.015625 11.25 C-38.33966552 4.53737835 -32.90469821 0.59043086 -25.68359375 -1.8984375 C-17.23703894 -3.8594055 -7.78844573 -4.21630145 0 0 Z " fill="#FDFDFB" transform="translate(689.015625,552.75)"/>
<path d="M0 0 C7.17563169 4.17791714 11.99390138 10.15150423 14.5625 18 C16.36778274 25.35999886 15.17325071 32.55752366 11.4375 39.125 C10.81875 40.07375 10.2 41.0225 9.5625 42 C8.9025 42 8.2425 42 7.5625 42 C7.54832031 41.32195313 7.53414062 40.64390625 7.51953125 39.9453125 C7.109321 31.94066916 5.51527379 24.92837395 -0.3359375 19.11328125 C-7.45509105 13.48069424 -14.46494638 11.98918381 -23.4375 13 C-29.52083433 14.78354493 -34.45035219 18.180057 -39.4375 22 C-38.94019348 17.02693484 -37.88447666 13.36200187 -35.4375 9 C-36.7575 8.67 -38.0775 8.34 -39.4375 8 C-38.6125 7.79375 -37.7875 7.5875 -36.9375 7.375 C-33.16510245 5.89298668 -30.64823192 4.00894326 -27.5625 1.4375 C-19.81413795 -3.80403903 -8.34698876 -3.7964099 0 0 Z " fill="#DBC733" transform="translate(787.4375,565)"/>
<path d="M0 0 C0 4.95 0 9.9 0 15 C-0.495 13.02 -0.495 13.02 -1 11 C-9.88054653 13.87679676 -15.96592183 17.68023848 -20.4375 26.0625 C-23.5817597 34.03884712 -23.13121084 42.99105842 -20 50.875 C-19.35794395 52.26166271 -18.70084922 53.64210464 -18 55 C-24.28910721 53.9190597 -28.66399235 48.7579048 -32.375 43.875 C-36.66202695 36.29026001 -37.34270842 28.74068153 -35.34765625 20.2109375 C-31.97836228 10.86946151 -26.33486702 5.10668653 -17.4296875 0.91015625 C-11.75392672 -1.21597279 -5.81848968 -1.93949656 0 0 Z " fill="#D6C331" transform="translate(1107,591)"/>
<path d="M0 0 C6.64971655 3.95388551 10.65151876 8.92789461 13.734375 16.03125 C13.734375 16.69125 13.734375 17.35125 13.734375 18.03125 C11.15340925 16.78293977 8.85036815 15.46415127 6.421875 13.90625 C-0.32527035 10.55794753 -8.98489079 10.6242954 -16.05859375 12.94921875 C-23.02301551 16.55391946 -27.19569627 21.84540574 -30.265625 29.03125 C-30.62129974 31.7191736 -30.86190041 34.21642772 -30.953125 36.90625 C-30.98728516 37.59460938 -31.02144531 38.28296875 -31.05664062 38.9921875 C-31.13826591 40.67133613 -31.2036407 42.35126168 -31.265625 44.03125 C-36.67494854 40.11106031 -38.52517239 36.37548048 -40.265625 30.03125 C-41.48793376 21.90968735 -39.18628087 14.47374885 -34.578125 7.78125 C-26.45787638 -2.3893614 -11.90217644 -5.4933122 0 0 Z " fill="#DCC733" transform="translate(788.265625,622.96875)"/>
<path d="M0 0 C0.71542969 0.12117187 1.43085937 0.24234375 2.16796875 0.3671875 C3.66263672 0.61855469 3.66263672 0.61855469 5.1875 0.875 C6.15042969 1.03742187 7.11335937 1.19984375 8.10546875 1.3671875 C9.39066406 1.57601562 10.67585937 1.78484375 12 2 C12.84836426 2.16467773 13.69672852 2.32935547 14.57080078 2.49902344 C26.10957026 4.56840548 37.70457472 4.40349381 49.39257812 4.53173828 C52.18897339 4.56548132 54.98502903 4.61053007 57.78125 4.65625 C58.6333606 4.6615271 59.48547119 4.6668042 60.36340332 4.67224121 C64.68186696 4.74478565 68.06450459 4.99829117 72 7 C71 9 71 9 69.18774414 9.71435547 C66.48256688 10.44940719 63.77782247 11.17806502 61.0625 11.875 C60.03922607 12.13821045 59.01595215 12.4014209 57.96166992 12.67260742 C39.5461673 17.23782431 20.95119732 19.57220774 2 20 C0.62062231 15.00382885 -0.2436417 10.72023463 -0.125 5.5 C-0.10695313 4.4584375 -0.08890625 3.416875 -0.0703125 2.34375 C-0.03550781 1.18359375 -0.03550781 1.18359375 0 0 Z " fill="#AFCE35" transform="translate(934,859)"/>
<path d="M0 0 C4.64989267 1.84803427 5.96061803 4.68903604 8.015625 9.078125 C10.34343235 15.9876484 9.95271786 23.53664347 6.96875 30.1953125 C2.83925736 37.88815765 -2.00577043 41.81502456 -10 45.3125 C-18.05058796 47.15742641 -25.06344689 45.85006034 -32.171875 41.74609375 C-36.93468651 38.46047002 -40.86378364 34.474784 -43 29 C-42.505 27.515 -42.505 27.515 -42 26 C-40.87464844 26.6496875 -40.87464844 26.6496875 -39.7265625 27.3125 C-31.81091868 31.61924828 -26.22761565 33.51710336 -17.40234375 31.3671875 C-10.11336832 28.92653509 -5.74312134 24.70249372 -1.90625 18.125 C0.70469174 12.32290725 0.28079637 6.23991926 0 0 Z " fill="#DBC733" transform="translate(1011,696)"/>
<path d="M0 0 C2.75954012 1.29473904 5.09121861 2.72370832 7.4765625 4.6171875 C8.13865723 5.13611572 8.80075195 5.65504395 9.48291016 6.18969727 C10.1897998 6.74584717 10.89668945 7.30199707 11.625 7.875 C17.80964983 12.67427208 24.10425148 17.23028705 30.625 21.5625 C31.35799316 22.05024902 32.09098633 22.53799805 32.84619141 23.04052734 C40.06744646 28.19552349 40.06744646 28.19552349 48.125 31.4375 C50.51751119 32.15525336 51.70755948 33.55679154 53.390625 35.34375 C58.12686908 40.21794294 63.21200495 44.91623821 68.875 48.6875 C72.29470671 51.21808297 73.76113443 53.40424621 76 57 C78.61574581 60.37466626 81.30416493 63.68909577 84 67 C83.01 67.495 83.01 67.495 82 68 C79.51971122 66.81031771 77.18707208 65.56453495 74.8125 64.1875 C73.74261841 63.57442993 73.74261841 63.57442993 72.65112305 62.94897461 C45.65441429 47.27855681 17.49243634 26.23865451 0 0 Z " fill="#ADCA33" transform="translate(734,784)"/>
<path d="M0 0 C5.82372383 3.34272278 9.03410915 7.87374598 11.9375 13.8125 C13.41243044 21.33464526 13.42623311 28.20515901 9.5625 35 C8.0067846 37.20148406 6.43387804 39.03265385 4.5625 41 C3.9025 41 3.2425 41 2.5625 41 C2.6553125 40.30777344 2.748125 39.61554687 2.84375 38.90234375 C3.56935527 29.06780094 0.40830171 21.72176401 -5.4375 14 C-10.33766092 10.30723873 -16.20316524 9.33548129 -22.26171875 9.59375 C-25.4454941 10.18820716 -28.02468206 11.50526956 -30.80859375 13.125 C-32.4375 14 -32.4375 14 -34.4375 14 C-32.13288146 6.87663361 -27.64540869 2.28146569 -21.08984375 -1.078125 C-14.06577087 -3.5194817 -6.75647204 -2.99157045 0 0 Z " fill="#DAC633" transform="translate(1017.4375,595)"/>
<path d="M0 0 C0.68378475 2.12733033 1.11826728 3.54630223 0.546875 5.73828125 C-1.87849867 15.76893378 0.45228703 25.58690755 4 35 C4.33257813 35.92683594 4.66515625 36.85367188 5.0078125 37.80859375 C5.79511449 40.16020164 5.79511449 40.16020164 8 41 C5.06574629 42.17495143 2.12710487 43.33850852 -0.8125 44.5 C-1.64587891 44.83386719 -2.47925781 45.16773438 -3.33789062 45.51171875 C-4.54155273 45.98544922 -4.54155273 45.98544922 -5.76953125 46.46875 C-6.50792236 46.76201172 -7.24631348 47.05527344 -8.00708008 47.35742188 C-10 48 -10 48 -13 48 C-16.70549994 38.62463872 -16.58358682 26.72397771 -12.875 17.375 C-9.62854343 10.73493868 -5.43492071 5.01684989 0 0 Z " fill="#DBC735" transform="translate(816,696)"/>
<path d="M0 0 C6.18800515 3.16220704 12.1291935 6.59695396 17.875 10.5 C18.92429687 11.2115625 19.97359375 11.923125 21.0546875 12.65625 C25.48895703 16.18484644 29.68167978 20.33122306 31 26 C30.85647909 29.03444215 30.48329709 32.00225186 30 35 C20.88921282 27.54571958 12.53288399 19.30188841 5.3125 10 C4.6796106 9.19067017 4.6796106 9.19067017 4.03393555 8.36499023 C1.99276599 5.65804609 0.48133632 3.39382899 0 0 Z " fill="#E4E4E3" transform="translate(807,836)"/>
<path d="M0 0 C0.33 0.99 0.66 1.98 1 3 C-0.328125 5.59375 -0.328125 5.59375 -2.25 8.5 C-2.87390625 9.4590625 -3.4978125 10.418125 -4.140625 11.40625 C-5.6507875 13.51286323 -7.09543991 15.26003152 -9 17 C-13.59306496 15.5140084 -16.43569245 13.14985318 -20 10 C-17.66078421 7.66078421 -15.93341643 7.16674038 -12.8125 6.125 C-8.16677521 4.49899632 -4.17205288 2.59594401 0 0 Z " fill="#DBC735" transform="translate(884,745)"/>
</svg>
